<svg width="48" height="32" viewBox="0 0 48 32" fill="none" xmlns="http://www.w3.org/2000/svg">
<g clip-path="url(#clip0_12139_2762)">
<rect width="32" height="32" rx="16" fill="white"/>
<path d="M4.89148 15.9999C4.89148 14.6313 6.00074 13.5216 7.36936 13.5216C8.73799 13.5216 9.84815 12.4123 9.84815 11.0437C9.84815 9.6751 10.9579 8.56494 12.3269 8.56494C13.6956 8.56494 14.8048 9.67465 14.8048 11.0437C14.8048 12.4128 13.6956 13.5216 12.3269 13.5216C10.9583 13.5216 9.84815 14.6313 9.84815 16.0004C9.84815 17.3695 10.9583 18.4783 12.3269 18.4783C13.6956 18.4783 14.8048 19.5884 14.8048 20.9571C14.8048 22.3257 13.6956 23.4349 12.3269 23.4349C10.9583 23.4349 9.84815 22.3257 9.84815 20.9571C9.84815 19.5884 8.73799 18.4783 7.36936 18.4783C6.00074 18.4783 4.89148 17.369 4.89148 15.9999Z" fill="#151A1A"/>
<path d="M27.1085 15.9995C27.1085 17.3681 25.9993 18.4778 24.6306 18.4778C23.262 18.4778 22.1519 19.5871 22.1519 20.9557C22.1519 22.3243 21.0417 23.4345 19.6731 23.4345C18.3044 23.4345 17.1952 22.3248 17.1952 20.9557C17.1952 19.5866 18.3044 18.4778 19.6731 18.4778C21.0417 18.4778 22.1519 17.3681 22.1519 15.9995C22.1519 14.6309 21.0417 13.5216 19.6731 13.5216C18.3044 13.5216 17.1952 12.4115 17.1952 11.0428C17.1952 9.6742 18.3044 8.56494 19.6731 8.56494C21.0417 8.56494 22.1519 9.6742 22.1519 11.0428C22.1519 12.4115 23.2616 13.5216 24.6306 13.5216C25.9993 13.5216 27.1085 14.6309 27.1085 15.9995Z" fill="#151A1A"/>
<path d="M18.4328 15.9999C18.4328 17.3304 17.3541 18.4092 16.0236 18.4092C14.6931 18.4092 13.6144 17.3309 13.6144 15.9999C13.6144 14.6694 14.6927 13.5907 16.0236 13.5907C17.3541 13.5907 18.4328 14.6694 18.4328 15.9999Z" fill="#151A1A"/>
</g>
<rect x="0.5" y="0.5" width="31" height="31" rx="15.5" stroke="#F6F6F6"/>
<g clip-path="url(#clip1_12139_2762)">
<rect x="16.5" y="0.5" width="31" height="31" rx="15.5" fill="white"/>
<rect x="16.5" y="0.5" width="31" height="31" rx="15.5" stroke="#F6F6F6"/>
<path d="M31.5078 21.6836L26.9141 16.8711C26.668 16.5977 26.668 16.1875 26.9414 15.9414C27.2148 15.6953 27.625 15.6953 27.8711 15.9688L31.3438 19.6055V10.2812C31.3438 9.92578 31.6172 9.625 32 9.625C32.3555 9.625 32.6562 9.92578 32.6562 10.2812V19.6055L36.1016 15.9688C36.3477 15.6953 36.7852 15.6953 37.0312 15.9414C37.3047 16.1875 37.3047 16.5977 37.0586 16.8711L32.4648 21.6836C32.3281 21.8203 32.1641 21.875 32 21.875C31.8086 21.875 31.6445 21.8203 31.5078 21.6836Z" fill="#101418"/>
</g>
<defs>
<clipPath id="clip0_12139_2762">
<rect width="32" height="32" rx="16" fill="white"/>
</clipPath>
<clipPath id="clip1_12139_2762">
<rect x="16" width="32" height="32" rx="16" fill="white"/>
</clipPath>
</defs>
</svg>
