<svg width="48" height="32" viewBox="0 0 48 32" fill="none" xmlns="http://www.w3.org/2000/svg">
<g clip-path="url(#clip0_12139_2828)">
<rect width="32" height="32" rx="16" fill="white"/>
<path d="M4.89148 15.9999C4.89148 14.6313 6.00074 13.5216 7.36936 13.5216C8.73799 13.5216 9.84815 12.4123 9.84815 11.0437C9.84815 9.6751 10.9579 8.56494 12.3269 8.56494C13.6956 8.56494 14.8048 9.67465 14.8048 11.0437C14.8048 12.4128 13.6956 13.5216 12.3269 13.5216C10.9583 13.5216 9.84815 14.6313 9.84815 16.0004C9.84815 17.3695 10.9583 18.4783 12.3269 18.4783C13.6956 18.4783 14.8048 19.5884 14.8048 20.9571C14.8048 22.3257 13.6956 23.4349 12.3269 23.4349C10.9583 23.4349 9.84815 22.3257 9.84815 20.9571C9.84815 19.5884 8.73799 18.4783 7.36936 18.4783C6.00074 18.4783 4.89148 17.369 4.89148 15.9999Z" fill="#151A1A"/>
<path d="M27.1085 15.9995C27.1085 17.3681 25.9993 18.4778 24.6306 18.4778C23.262 18.4778 22.1519 19.5871 22.1519 20.9557C22.1519 22.3243 21.0417 23.4345 19.6731 23.4345C18.3044 23.4345 17.1952 22.3248 17.1952 20.9557C17.1952 19.5866 18.3044 18.4778 19.6731 18.4778C21.0417 18.4778 22.1519 17.3681 22.1519 15.9995C22.1519 14.6309 21.0417 13.5216 19.6731 13.5216C18.3044 13.5216 17.1952 12.4115 17.1952 11.0428C17.1952 9.6742 18.3044 8.56494 19.6731 8.56494C21.0417 8.56494 22.1519 9.6742 22.1519 11.0428C22.1519 12.4115 23.2616 13.5216 24.6306 13.5216C25.9993 13.5216 27.1085 14.6309 27.1085 15.9995Z" fill="#151A1A"/>
<path d="M18.4328 15.9999C18.4328 17.3304 17.3541 18.4092 16.0236 18.4092C14.6931 18.4092 13.6144 17.3309 13.6144 15.9999C13.6144 14.6694 14.6927 13.5907 16.0236 13.5907C17.3541 13.5907 18.4328 14.6694 18.4328 15.9999Z" fill="#151A1A"/>
</g>
<rect x="0.5" y="0.5" width="31" height="31" rx="15.5" stroke="#F6F6F6"/>
<g clip-path="url(#clip1_12139_2828)">
<rect x="16.5" y="0.5" width="31" height="31" rx="15.5" fill="white"/>
<rect x="16.5" y="0.5" width="31" height="31" rx="15.5" stroke="#F6F6F6"/>
<path d="M33.3945 14.4102C35.6641 14.1641 37.4414 12.3594 37.6602 10.0625H37.4688C35.3633 10.0625 33.5859 11.4297 32.9023 13.2891C32.6836 12.8242 32.3828 12.3867 32.0547 12.0039C33.0938 10.0625 35.1172 8.75 37.4688 8.75H38.125C38.5898 8.75 39 9.16016 39 9.625C39 12.7422 36.6758 15.3125 33.668 15.6953C33.6133 15.2578 33.5312 14.8477 33.3945 14.4102ZM26.3125 11.8125V12.25C26.3125 14.9297 28.4453 17.0625 31.125 17.0625H31.3438V16.625C31.3438 13.9727 29.1836 11.8125 26.5312 11.8125H26.3125ZM32.6562 16.625V17.0625V18.375V22.0938C32.6562 22.4766 32.3555 22.75 32 22.75C31.6172 22.75 31.3438 22.4766 31.3438 22.0938V18.375H31.125C27.7344 18.375 25 15.6406 25 12.25V11.375C25 10.9102 25.3828 10.5 25.875 10.5H26.5312C29.8945 10.5 32.6562 13.2617 32.6562 16.625Z" fill="#101418"/>
</g>
<defs>
<clipPath id="clip0_12139_2828">
<rect width="32" height="32" rx="16" fill="white"/>
</clipPath>
<clipPath id="clip1_12139_2828">
<rect x="16" width="32" height="32" rx="16" fill="white"/>
</clipPath>
</defs>
</svg>
