<svg width="48" height="48" viewBox="0 0 48 48" fill="none" xmlns="http://www.w3.org/2000/svg">
<rect width="48" height="48" rx="24" fill="white"/>
<path d="M7.33691 24C7.33691 21.9471 9.0008 20.2825 11.0537 20.2825C13.1067 20.2825 14.7719 18.6186 14.7719 16.5657C14.7719 14.5128 16.4365 12.8475 18.4901 12.8475C20.543 12.8475 22.2069 14.5121 22.2069 16.5657C22.2069 18.6193 20.543 20.2825 18.4901 20.2825C16.4371 20.2825 14.7719 21.9471 14.7719 24.0007C14.7719 26.0543 16.4371 27.7175 18.4901 27.7175C20.543 27.7175 22.2069 29.3828 22.2069 31.4357C22.2069 33.4886 20.543 35.1525 18.4901 35.1525C16.4371 35.1525 14.7719 33.4886 14.7719 31.4357C14.7719 29.3828 13.1067 27.7175 11.0537 27.7175C9.0008 27.7175 7.33691 26.0536 7.33691 24Z" fill="#151A1A"/>
<path d="M40.6625 23.9994C40.6625 26.0523 38.9986 27.7169 36.9457 27.7169C34.8927 27.7169 33.2275 29.3808 33.2275 31.4337C33.2275 33.4866 31.5622 35.1519 29.5093 35.1519C27.4564 35.1519 25.7925 33.4873 25.7925 31.4337C25.7925 29.3801 27.4564 27.7169 29.5093 27.7169C31.5622 27.7169 33.2275 26.0523 33.2275 23.9994C33.2275 21.9464 31.5622 20.2825 29.5093 20.2825C27.4564 20.2825 25.7925 18.6173 25.7925 16.5644C25.7925 14.5114 27.4564 12.8475 29.5093 12.8475C31.5622 12.8475 33.2275 14.5114 33.2275 16.5644C33.2275 18.6173 34.892 20.2825 36.9457 20.2825C38.9986 20.2825 40.6625 21.9464 40.6625 23.9994Z" fill="#151A1A"/>
<path d="M27.6491 24C27.6491 25.9957 26.031 27.6138 24.0352 27.6138C22.0395 27.6138 20.4214 25.9963 20.4214 24C20.4214 22.0042 22.0388 20.3861 24.0352 20.3861C26.031 20.3861 27.6491 22.0042 27.6491 24Z" fill="#151A1A"/>
</svg>
