<svg width="48" height="32" viewBox="0 0 48 32" fill="none" xmlns="http://www.w3.org/2000/svg">
<g clip-path="url(#clip0_12139_2726)">
<rect width="32" height="32" rx="16" fill="white"/>
<path d="M4.89148 16C4.89148 14.6314 6.00074 13.5217 7.36936 13.5217C8.73799 13.5217 9.84815 12.4124 9.84815 11.0438C9.84815 9.67516 10.9579 8.565 12.3269 8.565C13.6956 8.565 14.8048 9.67471 14.8048 11.0438C14.8048 12.4129 13.6956 13.5217 12.3269 13.5217C10.9583 13.5217 9.84815 14.6314 9.84815 16.0005C9.84815 17.3695 10.9583 18.4783 12.3269 18.4783C13.6956 18.4783 14.8048 19.5885 14.8048 20.9571C14.8048 22.3257 13.6956 23.435 12.3269 23.435C10.9583 23.435 9.84815 22.3257 9.84815 20.9571C9.84815 19.5885 8.73799 18.4783 7.36936 18.4783C6.00074 18.4783 4.89148 17.3691 4.89148 16Z" fill="#151A1A"/>
<path d="M27.1085 15.9996C27.1085 17.3682 25.9993 18.4779 24.6306 18.4779C23.262 18.4779 22.1519 19.5871 22.1519 20.9558C22.1519 22.3244 21.0417 23.4346 19.6731 23.4346C18.3044 23.4346 17.1952 22.3248 17.1952 20.9558C17.1952 19.5867 18.3044 18.4779 19.6731 18.4779C21.0417 18.4779 22.1519 17.3682 22.1519 15.9996C22.1519 14.6309 21.0417 13.5217 19.6731 13.5217C18.3044 13.5217 17.1952 12.4115 17.1952 11.0429C17.1952 9.67426 18.3044 8.565 19.6731 8.565C21.0417 8.565 22.1519 9.67426 22.1519 11.0429C22.1519 12.4115 23.2616 13.5217 24.6306 13.5217C25.9993 13.5217 27.1085 14.6309 27.1085 15.9996Z" fill="#151A1A"/>
<path d="M18.4328 16C18.4328 17.3305 17.3541 18.4092 16.0236 18.4092C14.6931 18.4092 13.6144 17.3309 13.6144 16C13.6144 14.6695 14.6927 13.5908 16.0236 13.5908C17.3541 13.5908 18.4328 14.6695 18.4328 16Z" fill="#151A1A"/>
</g>
<rect x="0.5" y="0.5" width="31" height="31" rx="15.5" stroke="#F6F6F6"/>
<g clip-path="url(#clip1_12139_2726)">
<rect x="16.5" y="0.5" width="31" height="31" rx="15.5" fill="white"/>
<rect x="16.5" y="0.5" width="31" height="31" rx="15.5" stroke="#F6F6F6"/>
<path d="M32.4648 9.84375L37.0586 14.6562C37.3047 14.9297 37.3047 15.3398 37.0312 15.5859C36.7578 15.832 36.3477 15.832 36.1016 15.5586L32.6562 11.9219V21.2188C32.6562 21.6016 32.3555 21.875 32 21.875C31.6172 21.875 31.3438 21.6016 31.3438 21.2188V11.9219L27.8711 15.5586C27.625 15.832 27.2148 15.832 26.9414 15.5859C26.668 15.3398 26.668 14.9023 26.9141 14.6562L31.5078 9.84375C31.6445 9.70703 31.8086 9.625 32 9.625C32.1641 9.625 32.3281 9.70703 32.4648 9.84375Z" fill="#101418"/>
</g>
<defs>
<clipPath id="clip0_12139_2726">
<rect width="32" height="32" rx="16" fill="white"/>
</clipPath>
<clipPath id="clip1_12139_2726">
<rect x="16" width="32" height="32" rx="16" fill="white"/>
</clipPath>
</defs>
</svg>
