<svg width="90" height="90" viewBox="0 0 90 90" fill="none" xmlns="http://www.w3.org/2000/svg">
<rect width="90" height="90" rx="45" fill="#F6F6F6"/>
<path d="M43.3125 29.1875C43.3125 28.2734 44.0156 27.5 45 27.5C54.9141 27.5 63 35.5859 63 45.5C63 55.4844 54.9141 63.5 45 63.5C35.0156 63.5 27 55.4844 27 45.5C27 42.8984 27.5625 40.3672 28.6172 38.0469C29.0391 37.1328 29.5312 36.2891 30.0938 35.4453C30.7266 34.4609 31.4297 33.6172 32.2734 32.7734C32.9062 32.1406 33.9609 32.1406 34.5938 32.7734C35.2969 33.4766 35.2969 34.5312 34.5938 35.1641C33.9609 35.8672 33.3984 36.5703 32.8359 37.2734V37.3438C31.3594 39.5234 30.4453 42.125 30.375 44.9375C30.375 45.1484 30.3047 45.3594 30.3047 45.5C30.3047 53.5859 36.9141 60.125 44.9297 60.125C53.0156 60.125 59.5547 53.5859 59.5547 45.5C59.5547 38.0469 53.9297 31.8594 46.6172 31.0156V34.8125C46.6172 35.7969 45.9141 36.5 44.9297 36.5C44.0156 36.5 43.2422 35.7969 43.2422 34.8125V29.1875H43.3125ZM38.1797 38.6797C38.8125 38.0469 39.8672 38.0469 40.5 38.6797L46.125 44.3047C46.8281 45.0078 46.8281 46.0625 46.125 46.6953C45.4922 47.3984 44.4375 47.3984 43.8047 46.6953L38.1797 41.0703C37.4766 40.4375 37.4766 39.3828 38.1797 38.6797Z" fill="#151A1A"/>
</svg>
