<svg width="16" height="16" viewBox="0 0 16 16" fill="none" xmlns="http://www.w3.org/2000/svg">
<path d="M8 0C8.40625 0 8.75 0.34375 8.75 0.75V15.25C8.75 15.6875 8.40625 16 8 16C7.5625 16 7.25 15.6875 7.25 15.25V0.75C7.25 0.34375 7.5625 0 8 0ZM1.5 5.21875V10.8125L4.28125 8L1.5 5.21875ZM0 4C0 3.625 0.21875 3.25 0.59375 3.09375C0.96875 2.9375 1.40625 3.03125 1.6875 3.3125L5.6875 7.3125C6.09375 7.6875 6.09375 8.34375 5.6875 8.71875L1.6875 12.7188C1.40625 13 0.96875 13.0938 0.59375 12.9375C0.21875 12.7812 0 12.4062 0 12V4ZM11.6875 8L14.5 10.8125V5.21875L11.6875 8ZM15.375 3.09375C15.75 3.25 16 3.59375 16 4V12C16 12.4062 15.75 12.7812 15.375 12.9375C15 13.0938 14.5625 13 14.2812 12.7188L10.2812 8.71875C9.875 8.34375 9.875 7.6875 10.2812 7.3125L14.2812 3.3125C14.5625 3.03125 15 2.9375 15.375 3.09375Z" fill="#444848"/>
</svg>
