<svg xmlns="http://www.w3.org/2000/svg" width="28" height="28" fill="none" stroke="none" viewBox="0 0 28 28">
    <path fill="currentColor" d="M8.977 14.5q-.824 0-1.4-.576a1.9 1.9 0 0 1-.577-1.4q0-.825.577-1.401a1.9 1.9 0 0 1 1.4-.577q.825 0 1.4.577.577.575.577 1.4t-.576 1.4a1.9 1.9 0 0 1-1.4.577m-.659 3.955a.64.64 0 0 1-.47-.19.64.64 0 0 1-.189-.47q0-.278.19-.468a.64.64 0 0 1 .47-.19h11.863q.28 0 .47.19t.189.469a.64.64 0 0 1-.19.47.63.63 0 0 1-.47.189zM14.25 14.5q-.825 0-1.4-.576a1.9 1.9 0 0 1-.577-1.4q0-.825.576-1.401a1.9 1.9 0 0 1 1.401-.577q.825 0 1.4.577.577.575.577 1.4t-.576 1.4a1.9 1.9 0 0 1-1.401.577m5.273 0q-.825 0-1.4-.576a1.9 1.9 0 0 1-.578-1.4q0-.825.577-1.401a1.9 1.9 0 0 1 1.4-.577q.825 0 1.401.577.577.575.577 1.4t-.577 1.4a1.9 1.9 0 0 1-1.4.577"></path>
</svg>