<svg width="14" height="13" viewBox="0 0 14 13" fill="none" xmlns="http://www.w3.org/2000/svg">
<path d="M7 12.5C4.84375 12.5 2.875 11.375 1.79688 9.5C0.71875 7.64844 0.71875 5.375 1.79688 3.5C2.875 1.64844 4.84375 0.5 7 0.5C9.13281 0.5 11.1016 1.64844 12.1797 3.5C13.2578 5.375 13.2578 7.64844 12.1797 9.5C11.1016 11.375 9.13281 12.5 7 12.5ZM9.64844 5.39844H9.625C9.85938 5.1875 9.85938 4.83594 9.625 4.60156C9.41406 4.39062 9.0625 4.39062 8.85156 4.60156L6.25 7.22656L5.14844 6.125C4.91406 5.89062 4.5625 5.89062 4.35156 6.125C4.11719 6.33594 4.11719 6.6875 4.35156 6.89844L5.85156 8.39844C6.0625 8.63281 6.41406 8.63281 6.64844 8.39844L9.64844 5.39844Z" fill="#689A65"/>
</svg>
