<svg width="32" height="37" viewBox="0 0 32 37" fill="none" xmlns="http://www.w3.org/2000/svg">
<path d="M12.6953 3.875C12.4844 3.875 12.3438 4.01562 12.2031 4.15625L10.8672 6.125H21.0625L19.7266 4.15625C19.6562 4.01562 19.4453 3.875 19.2344 3.875H12.6953ZM25.1406 6.125H26.0547H29.5H30.0625C30.9766 6.125 31.75 6.89844 31.75 7.8125C31.75 8.79688 30.9766 9.5 30.0625 9.5H29.2188L27.5312 32.3516C27.3203 34.7422 25.4219 36.5 23.0312 36.5H8.89844C6.50781 36.5 4.60938 34.7422 4.39844 32.3516L2.71094 9.5H1.9375C0.953125 9.5 0.25 8.79688 0.25 7.8125C0.25 6.89844 0.953125 6.125 1.9375 6.125H2.5H5.875H6.78906L9.39062 2.25781C10.0938 1.20312 11.3594 0.5 12.6953 0.5H19.2344C20.5703 0.5 21.8359 1.20312 22.5391 2.25781L25.1406 6.125ZM25.8438 9.5H6.08594L7.77344 32.1406C7.84375 32.7031 8.33594 33.125 8.89844 33.125H23.0312C23.5938 33.125 24.0859 32.7031 24.1562 32.1406L25.8438 9.5Z" fill="#151A1A"/>
</svg>
