<svg width="72" height="72" viewBox="0 0 72 72" fill="none" xmlns="http://www.w3.org/2000/svg">
<rect width="72" height="72" rx="36" fill="#F6F6F6"/>
<path d="M37.9922 34.5859C41.2344 34.2344 43.7734 31.6562 44.0859 28.375H43.8125C40.8047 28.375 38.2656 30.3281 37.2891 32.9844C36.9766 32.3203 36.5469 31.6953 36.0781 31.1484C37.5625 28.375 40.4531 26.5 43.8125 26.5H44.75C45.4141 26.5 46 27.0859 46 27.75C46 32.2031 42.6797 35.875 38.3828 36.4219C38.3047 35.7969 38.1875 35.2109 37.9922 34.5859ZM27.875 30.875V31.5C27.875 35.3281 30.9219 38.375 34.75 38.375H35.0625V37.75C35.0625 33.9609 31.9766 30.875 28.1875 30.875H27.875ZM36.9375 37.75V38.375V40.25V45.5625C36.9375 46.1094 36.5078 46.5 36 46.5C35.4531 46.5 35.0625 46.1094 35.0625 45.5625V40.25H34.75C29.9062 40.25 26 36.3438 26 31.5V30.25C26 29.5859 26.5469 29 27.25 29H28.1875C32.9922 29 36.9375 32.9453 36.9375 37.75Z" fill="#101418"/>
</svg>
