<svg width="82" height="82" viewBox="0 0 82 82" fill="none" xmlns="http://www.w3.org/2000/svg">
<path d="M34.4463 6.53703C34.4463 9.80559 36.8499 12.5022 39.9798 12.9924C40.3173 12.9822 40.6548 12.9618 41.0026 12.9618C41.3504 12.9618 41.6879 12.972 42.0254 12.9924C45.1553 12.5022 47.5589 9.80559 47.5589 6.53703C47.5589 2.92118 44.6234 -9.15527e-05 41.0128 -9.15527e-05C37.4023 -9.15527e-05 34.4667 2.9314 34.4667 6.53703H34.4463Z" fill="#F6F6F6"/>
<path d="M42.0154 12.9925C41.6778 12.9823 41.3403 12.9619 40.9926 12.9619C40.6448 12.9619 40.3073 12.9721 39.9697 12.9925C40.3073 13.0436 40.6448 13.0844 40.9926 13.0844C41.3403 13.0844 41.6778 13.0538 42.0154 12.9925Z" fill="#31249C"/>
<path d="M70.6865 12.7271C70.8809 12.9316 71.0854 13.1362 71.2798 13.351C71.0957 13.126 70.8911 12.9214 70.6865 12.7271Z" fill="#C9C9C9"/>
<path d="M59.6709 17.497C59.6709 18.8453 60.08 20.0915 60.7755 21.1333C61.2563 21.6134 61.7063 22.1139 62.1564 22.6144C63.2712 23.503 64.6827 24.0342 66.2272 24.0342C69.848 24.0342 72.7733 21.1027 72.7733 17.497C72.7733 15.924 72.2108 14.4736 71.28 13.3398C71.0856 13.1253 70.8811 12.9211 70.6867 12.7168C69.5207 11.6238 67.9456 10.9497 66.217 10.9497C62.5962 10.9497 59.6709 13.8812 59.6709 17.4868V17.497Z" fill="#F6F6F6"/>
<path d="M62.1572 22.6243C61.7174 22.1136 61.2571 21.6131 60.7764 21.1432C61.1548 21.705 61.6253 22.2055 62.1572 22.6243Z" fill="#31249C"/>
<path d="M11.0967 12.9517C11.0967 12.9517 11.158 12.8904 11.1887 12.8597C11.158 12.8904 11.1274 12.921 11.0967 12.9517Z" fill="#C9C9C9"/>
<path d="M15.7907 24.0442C17.3045 24.0442 18.6956 23.5232 19.8002 22.6652C20.2707 22.1239 20.7515 21.603 21.2629 21.0923C21.9482 20.0606 22.3471 18.8247 22.3471 17.4968C22.3471 13.881 19.4115 10.9597 15.801 10.9597C14.0008 10.9597 12.3745 11.6849 11.1983 12.8494C11.1676 12.88 11.1369 12.9106 11.1062 12.9413C9.96063 14.1159 9.25488 15.7196 9.25488 17.4968C9.25488 21.1127 12.1904 24.034 15.801 24.034L15.7907 24.0442Z" fill="#F6F6F6"/>
<path d="M21.2624 21.0923C20.751 21.5928 20.2703 22.1239 19.7998 22.6653C20.3624 22.2261 20.8635 21.6949 21.2624 21.0923Z" fill="#31249C"/>
<path d="M75.4516 34.4017C72.1785 34.4017 69.4783 36.802 68.9873 39.9276C68.9975 40.2647 69.018 40.6017 69.018 40.949C69.018 41.2963 69.0078 41.6334 68.9873 41.9704C69.4783 45.096 72.1785 47.4963 75.4516 47.4963C79.0724 47.4963 81.9977 44.5648 81.9977 40.9592C81.9977 37.3536 79.0621 34.4221 75.4516 34.4221V34.4017Z" fill="#F6F6F6"/>
<path d="M68.9874 41.9601C68.9976 41.6231 69.0181 41.286 69.0181 40.9387C69.0181 40.5914 69.0079 40.2544 68.9874 39.9173C68.9364 40.2544 68.8955 40.5914 68.8955 40.9387C68.8955 41.286 68.9261 41.6231 68.9874 41.9601Z" fill="#31249C"/>
<path d="M6.54511 47.4858C9.81816 47.4858 12.5184 45.0855 13.0094 41.9599C12.9991 41.6229 12.9787 41.2858 12.9787 40.9385C12.9787 40.5912 12.9889 40.2542 13.0094 39.9171C12.5184 36.7915 9.81816 34.3912 6.54511 34.3912C2.92431 34.3912 -0.000976562 37.3227 -0.000976562 40.9283C-0.000976562 44.5339 2.93454 47.4654 6.54511 47.4654V47.4858Z" fill="#F6F6F6"/>
<path d="M13.0101 39.9273C12.9999 40.2644 12.9795 40.6014 12.9795 40.9487C12.9795 41.296 12.9897 41.6331 13.0101 41.9702C13.0612 41.6331 13.1021 41.296 13.1021 40.9487C13.1021 40.6014 13.0714 40.2644 13.0101 39.9273Z" fill="#31249C"/>
<path d="M66.2268 57.8536C64.6823 57.8536 63.2606 58.395 62.1355 59.2938C61.6241 59.7024 61.1638 60.1927 60.7956 60.7443C55.7223 65.8003 48.7262 68.9259 41.0039 68.9259C33.2815 68.9259 26.3161 65.8208 21.2531 60.7851C20.8644 60.2029 20.3837 59.6922 19.8314 59.253C18.7165 58.3848 17.3152 57.8536 15.7912 57.8536C12.1704 57.8536 9.24512 60.7851 9.24512 64.3908C9.24512 66.0659 9.87927 67.5878 10.9123 68.742C11.0248 68.8646 11.1373 68.977 11.2499 69.0995C18.4301 76.6581 28.4538 81.4792 39.6231 81.8469C40.0629 81.9388 40.5231 81.9899 41.0039 81.9899C41.4846 81.9899 41.9346 81.9388 42.3847 81.8469C53.4824 81.4792 63.4651 76.7091 70.6352 69.2221C70.8704 68.977 71.1057 68.742 71.3307 68.4969C72.241 67.3733 72.7933 65.9433 72.7933 64.3908C72.7933 60.7749 69.8578 57.8536 66.2472 57.8536H66.2268Z" fill="#F6F6F6"/>
<path d="M62.1204 27.7097C61.8741 26.592 60.8891 25.776 59.7474 25.7648C53.7032 25.6642 48.129 28.2575 44.3346 32.885C43.607 33.7681 42.9802 34.6958 42.4205 35.6683C41.8721 34.6958 41.2341 33.7681 40.5065 32.885C36.7121 28.2575 31.0707 25.6754 25.0936 25.7648C23.9407 25.7872 22.9558 26.592 22.7207 27.7097C21.4447 33.5669 22.8886 39.5805 26.6831 44.1969C30.0074 48.2433 34.7197 50.7247 39.8685 51.2166V57.029C39.8685 58.3927 40.9766 59.4993 42.3422 59.4993C43.7077 59.4993 44.8159 58.3927 44.8159 57.029V51.2166C50.0206 50.7583 54.8001 48.2768 58.158 44.1969C61.9525 39.5693 63.3964 33.5557 62.1204 27.7097ZM30.5111 41.056C28.127 38.1498 26.9853 34.5058 27.2539 30.8172C30.9364 31.2754 34.2832 33.1086 36.6785 36.0148C38.6485 38.418 39.7566 41.3354 39.9357 44.3534C39.9133 44.9458 39.9021 45.5494 39.9357 46.153C39.9357 46.1866 39.9357 46.2201 39.9357 46.2536C36.2531 45.7954 32.9064 43.9622 30.5111 41.056ZM54.33 41.056C51.9459 43.9622 48.5879 45.7954 44.9054 46.2536C44.9054 46.2201 44.9054 46.1866 44.9054 46.153C44.939 45.5494 44.9278 44.957 44.9054 44.3534C45.0733 41.3242 46.1814 38.418 48.1626 36.0148C50.5467 33.1086 53.9046 31.2754 57.5872 30.8172C57.8558 34.5058 56.7141 38.1498 54.33 41.056Z" fill="#151A1A"/>
</svg>
