<svg width="41" height="35" viewBox="0 0 41 35" fill="none" xmlns="http://www.w3.org/2000/svg">
<path d="M40.1204 2.70975C39.8741 1.59197 38.8891 0.775993 37.7474 0.764815C31.7032 0.664216 26.129 3.25746 22.3346 7.88505C21.607 8.76809 20.9802 9.69584 20.4205 10.6683C19.8721 9.69584 19.2341 8.76809 18.5065 7.88505C14.7121 3.25746 9.07074 0.675393 3.09363 0.764815C1.94074 0.787171 0.955753 1.59197 0.720698 2.70975C-0.555314 8.56689 0.888593 14.5805 4.68305 19.1969C8.0074 23.2433 12.7197 25.7247 17.8685 26.2166V32.029C17.8685 33.3927 18.9766 34.4993 20.3422 34.4993C21.7077 34.4993 22.8159 33.3927 22.8159 32.029V26.2166C28.0206 25.7583 32.8001 23.2768 36.158 19.1969C39.9525 14.5693 41.3964 8.55571 40.1204 2.70975ZM8.51109 16.056C6.12696 13.1498 4.98526 9.50582 5.2539 5.81716C8.93643 6.27545 12.2832 8.1086 14.6785 11.0148C16.6485 13.418 17.7566 16.3354 17.9357 19.3534C17.9133 19.9458 17.9021 20.5494 17.9357 21.153C17.9357 21.1866 17.9357 21.2201 17.9357 21.2536C14.2531 20.7954 10.9064 18.9622 8.51109 16.056ZM32.33 16.056C29.9459 18.9622 26.5879 20.7954 22.9054 21.2536C22.9054 21.2201 22.9054 21.1866 22.9054 21.153C22.939 20.5494 22.9278 19.957 22.9054 19.3534C23.0733 16.3242 24.1814 13.418 26.1626 11.0148C28.5467 8.1086 31.9046 6.27545 35.5872 5.81716C35.8558 9.50582 34.7141 13.1498 32.33 16.056Z" fill="#151A1A"/>
</svg>
