<svg width="90" height="90" viewBox="0 0 90 90" fill="none" xmlns="http://www.w3.org/2000/svg">
<rect width="90" height="90" rx="45" fill="#F6F6F6"/>
<path d="M62.5078 30.3828L57.2344 35.6562C59.4141 38.3281 60.6797 41.7734 60.6797 45.5C60.6797 54.2188 53.6484 61.25 44.9297 61.25C41.2031 61.25 37.7578 59.9844 35.0859 57.8047L29.8125 63.0078C29.1797 63.7109 28.125 63.7109 27.4922 63.0078C26.7891 62.375 26.7891 61.3203 27.4922 60.6172L32.6953 55.4141C30.5156 52.7422 29.25 49.2969 29.25 45.5C29.25 36.8516 36.2812 29.75 45 29.75C48.7266 29.75 52.1719 31.0859 54.8438 33.2656L60.1172 28.0625C60.75 27.3594 61.8047 27.3594 62.5078 28.0625C63.1406 28.6953 63.1406 29.75 62.5078 30.3828ZM52.4531 35.6562C50.3438 34.1094 47.7422 33.125 45 33.125C38.1094 33.125 32.625 38.6797 32.625 45.5C32.625 48.3125 33.5391 50.9141 35.0859 53.0234L52.4531 35.6562ZM37.4766 55.4141C39.5859 56.9609 42.1875 57.875 45 57.875C51.8203 57.875 57.375 52.3906 57.375 45.5C57.375 42.7578 56.3906 40.1562 54.8438 38.0469L37.4766 55.4141Z" fill="#151A1A"/>
</svg>
