<svg width="16" height="16" viewBox="0 0 16 16" fill="none" xmlns="http://www.w3.org/2000/svg">
<path d="M15.5312 11.7812L12.5312 14.7812C12.2188 15.0938 11.75 15.0938 11.4688 14.7812L8.46875 11.7812C8.15625 11.5 8.15625 11.0312 8.46875 10.75C8.75 10.4375 9.21875 10.4375 9.53125 10.75L11.25 12.4688V1.75C11.25 1.34375 11.5625 1 12 1C12.4062 1 12.75 1.34375 12.75 1.75V12.4688L14.4688 10.75C14.75 10.4375 15.2188 10.4375 15.5312 10.75C15.8125 11.0312 15.8125 11.5 15.5312 11.7812ZM4.53125 1.21875L7.5 4.21875C7.8125 4.53125 7.8125 5 7.5 5.28125C7.21875 5.59375 6.75 5.59375 6.4375 5.28125L4.71875 3.5625V14.25C4.71875 14.6875 4.40625 15 3.96875 15C3.5625 15 3.21875 14.6875 3.21875 14.25V3.5625L1.5 5.28125C1.21875 5.59375 0.75 5.59375 0.46875 5.28125C0.15625 5 0.15625 4.53125 0.46875 4.21875L3.46875 1.21875C3.75 0.9375 4.21875 0.9375 4.53125 1.21875Z" fill="#151A1A"/>
</svg>

