<svg width="12" height="12" viewBox="0 0 12 12" fill="none" xmlns="http://www.w3.org/2000/svg">
<path d="M11.5312 1.53125L1.5 11.5312C1.21875 11.8438 0.75 11.8438 0.46875 11.5312C0.15625 11.25 0.15625 10.7812 0.46875 10.4688L10.4688 0.5C10.75 0.1875 11.2188 0.1875 11.5312 0.5C11.8125 0.78125 11.8125 1.25 11.5312 1.53125ZM3.5 2C3.5 2.5625 3.1875 3.03125 2.75 3.3125C2.28125 3.59375 1.6875 3.59375 1.25 3.3125C0.78125 3.03125 0.5 2.5625 0.5 2C0.5 1.46875 0.78125 1 1.25 0.71875C1.6875 0.4375 2.28125 0.4375 2.75 0.71875C3.1875 1 3.5 1.46875 3.5 2ZM11.5 10C11.5 10.5625 11.1875 11.0312 10.75 11.3125C10.2812 11.5938 9.6875 11.5938 9.25 11.3125C8.78125 11.0312 8.5 10.5625 8.5 10C8.5 9.46875 8.78125 9 9.25 8.71875C9.6875 8.4375 10.2812 8.4375 10.75 8.71875C11.1875 9 11.5 9.46875 11.5 10Z" fill="#444848"/>
</svg>
