<svg width="12" height="16" viewBox="0 0 12 16" fill="#151A1A" xmlns="http://www.w3.org/2000/svg">
<path d="M6.75 1V4.75H10.5C10.9062 4.75 11.25 5.09375 11.25 5.5C11.25 5.9375 10.9062 6.25 10.5 6.25H6.75V10C6.75 10.4375 6.40625 10.75 6 10.75C5.5625 10.75 5.25 10.4375 5.25 10V6.25H1.5C1.0625 6.25 0.75 5.9375 0.75 5.5C0.75 5.09375 1.0625 4.75 1.5 4.75H5.25V1C5.25 0.59375 5.5625 0.25 6 0.25C6.40625 0.25 6.75 0.59375 6.75 1ZM0.25 15.25C0.25 14.8438 0.5625 14.5 1 14.5H11C11.4062 14.5 11.75 14.8438 11.75 15.25C11.75 15.6875 11.4062 16 11 16H1C0.5625 16 0.25 15.6875 0.25 15.25Z" fill="#151A1A"/>
</svg>
