<svg width="14" height="13" viewBox="0 0 14 13" fill="none" xmlns="http://www.w3.org/2000/svg">
<path d="M4.8125 1.9375H2.1875V4.5625H4.8125V1.9375ZM2.1875 0.625H4.8125C5.52344 0.625 6.125 1.22656 6.125 1.9375V4.5625C6.125 5.30078 5.52344 5.875 4.8125 5.875H2.1875C1.44922 5.875 0.875 5.30078 0.875 4.5625V1.9375C0.875 1.22656 1.44922 0.625 2.1875 0.625ZM4.8125 8.9375H2.1875V11.5625H4.8125V8.9375ZM2.1875 7.625H4.8125C5.52344 7.625 6.125 8.22656 6.125 8.9375V11.5625C6.125 12.3008 5.52344 12.875 4.8125 12.875H2.1875C1.44922 12.875 0.875 12.3008 0.875 11.5625V8.9375C0.875 8.22656 1.44922 7.625 2.1875 7.625ZM9.1875 1.9375V4.5625H11.8125V1.9375H9.1875ZM7.875 1.9375C7.875 1.22656 8.44922 0.625 9.1875 0.625H11.8125C12.5234 0.625 13.125 1.22656 13.125 1.9375V4.5625C13.125 5.30078 12.5234 5.875 11.8125 5.875H9.1875C8.44922 5.875 7.875 5.30078 7.875 4.5625V1.9375ZM2.84375 3.03125C2.84375 2.8125 3.03516 2.59375 3.28125 2.59375H3.71875C3.9375 2.59375 4.15625 2.8125 4.15625 3.03125V3.46875C4.15625 3.71484 3.9375 3.90625 3.71875 3.90625H3.28125C3.03516 3.90625 2.84375 3.71484 2.84375 3.46875V3.03125ZM3.28125 9.59375H3.71875C3.9375 9.59375 4.15625 9.8125 4.15625 10.0312V10.4688C4.15625 10.7148 3.9375 10.9062 3.71875 10.9062H3.28125C3.03516 10.9062 2.84375 10.7148 2.84375 10.4688V10.0312C2.84375 9.8125 3.03516 9.59375 3.28125 9.59375ZM9.84375 3.03125C9.84375 2.8125 10.0352 2.59375 10.2812 2.59375H10.7188C10.9375 2.59375 11.1562 2.8125 11.1562 3.03125V3.46875C11.1562 3.71484 10.9375 3.90625 10.7188 3.90625H10.2812C10.0352 3.90625 9.84375 3.71484 9.84375 3.46875V3.03125ZM7.875 8.0625C7.875 7.84375 8.06641 7.625 8.3125 7.625H10.0625C10.2812 7.625 10.5 7.84375 10.5 8.0625C10.5 8.30859 10.6914 8.5 10.9375 8.5H11.8125C12.0312 8.5 12.25 8.30859 12.25 8.0625C12.25 7.84375 12.4414 7.625 12.6875 7.625C12.9062 7.625 13.125 7.84375 13.125 8.0625V10.6875C13.125 10.9336 12.9062 11.125 12.6875 11.125H10.9375C10.6914 11.125 10.5 10.9336 10.5 10.6875C10.5 10.4688 10.2812 10.25 10.0625 10.25C9.81641 10.25 9.625 10.4688 9.625 10.6875V12.4375C9.625 12.6836 9.40625 12.875 9.1875 12.875H8.3125C8.06641 12.875 7.875 12.6836 7.875 12.4375V8.0625ZM10.9375 12C11.1562 12 11.375 12.2188 11.375 12.4375C11.375 12.6836 11.1562 12.875 10.9375 12.875C10.6914 12.875 10.5 12.6836 10.5 12.4375C10.5 12.2188 10.6914 12 10.9375 12ZM12.6875 12C12.9062 12 13.125 12.2188 13.125 12.4375C13.125 12.6836 12.9062 12.875 12.6875 12.875C12.4414 12.875 12.25 12.6836 12.25 12.4375C12.25 12.2188 12.4414 12 12.6875 12Z" fill="#101418"/>
</svg>
