<svg width="90" height="90" viewBox="0 0 90 90" fill="none" xmlns="http://www.w3.org/2000/svg">
<rect width="90" height="90" rx="45" fill="#F6F6F6"/>
<path d="M52.875 46.1328C59.3438 41.7734 60.0469 35.5156 59.4141 31.0859C54.9844 30.4531 48.7266 31.1562 44.2969 37.625C42.1875 40.7188 39.5156 46.625 38.0391 49.8594L40.5 52.3203C43.8047 50.9844 49.7109 48.3125 52.875 46.1328ZM35.2969 47.75H28.6875C28.0547 47.75 27.4922 47.4688 27.2109 46.9062C26.8594 46.4141 26.9297 45.7812 27.2109 45.2188L30.8672 39.0312C31.7812 37.4844 33.4688 36.5 35.2266 36.5H40.9922C41.2031 36.2188 41.3438 36.0078 41.5547 35.7266C47.3203 27.2188 55.8984 26.9375 60.9609 27.9219C61.8047 28.0625 62.4375 28.6953 62.5781 29.5391C63.5625 34.6016 63.2812 43.1797 54.7734 48.9453C54.4922 49.1562 54.2812 49.2969 54 49.5078V55.2734C54 57.0312 53.0156 58.7188 51.4688 59.6328L45.2812 63.2891C44.7188 63.6406 44.0859 63.6406 43.5938 63.2891C43.0312 63.0078 42.75 62.4453 42.75 61.8828V55.0625C42.1172 55.3438 41.5547 55.5547 41.1328 55.7656C40.2891 56.1172 39.3047 55.9062 38.6719 55.2734L35.0859 51.7578C34.4531 51.0547 34.2422 50.1406 34.6641 49.2969C34.8047 48.875 35.0156 48.3125 35.2969 47.75ZM55.6875 37.625C55.6875 38.6797 55.125 39.5938 54.2812 40.0859C53.3672 40.5781 52.3125 40.5781 51.4688 40.0859C50.5547 39.5938 50.0625 38.6797 50.0625 37.625C50.0625 36.6406 50.5547 35.7266 51.4688 35.2344C52.3125 34.7422 53.3672 34.7422 54.2812 35.2344C55.125 35.7266 55.6875 36.6406 55.6875 37.625Z" fill="#151A1A"/>
</svg>
