<svg width="24" height="24" viewBox="0 0 24 24" fill="none" xmlns="http://www.w3.org/2000/svg">
<path d="M11.125 6.9375V16.5625H17.25C17.4688 16.5625 17.6875 16.3711 17.6875 16.125V7.375C17.6875 7.15625 17.4688 6.9375 17.25 6.9375H11.125ZM5 7.375C5 6.41797 5.76562 5.625 6.75 5.625H17.25C18.207 5.625 19 6.41797 19 7.375V16.125C19 17.1094 18.207 17.875 17.25 17.875H6.75C5.76562 17.875 5 17.1094 5 16.125V7.375ZM6.75 8.03125C6.75 8.41406 7.02344 8.6875 7.40625 8.6875H8.71875C9.07422 8.6875 9.375 8.41406 9.375 8.03125C9.375 7.67578 9.07422 7.375 8.71875 7.375H7.40625C7.02344 7.375 6.75 7.67578 6.75 8.03125ZM7.40625 10C7.02344 10 6.75 10.3008 6.75 10.6562C6.75 11.0391 7.02344 11.3125 7.40625 11.3125H8.71875C9.07422 11.3125 9.375 11.0391 9.375 10.6562C9.375 10.3008 9.07422 10 8.71875 10H7.40625ZM6.75 13.2812C6.75 13.6641 7.02344 13.9375 7.40625 13.9375H8.71875C9.07422 13.9375 9.375 13.6641 9.375 13.2812C9.375 12.9258 9.07422 12.625 8.71875 12.625H7.40625C7.02344 12.625 6.75 12.9258 6.75 13.2812Z" fill="white"/>
</svg>
