<svg width="72" height="72" viewBox="0 0 72 72" fill="none" xmlns="http://www.w3.org/2000/svg">
<rect width="72" height="72" rx="36" fill="#F6F6F6"/>
<path d="M44.125 36.5C44.125 33.6094 42.5625 30.9531 40.0625 29.4688C37.5234 28.0234 34.4375 28.0234 31.9375 29.4688C29.3984 30.9531 27.875 33.6094 27.875 36.5C27.875 39.4297 29.3984 42.0859 31.9375 43.5703C34.4375 45.0156 37.5234 45.0156 40.0625 43.5703C42.5625 42.0859 44.125 39.4297 44.125 36.5ZM26 36.5C26 32.9453 27.875 29.6641 31 27.8672C34.0859 26.0703 37.875 26.0703 41 27.8672C44.0859 29.6641 46 32.9453 46 36.5C46 40.0938 44.0859 43.375 41 45.1719C37.875 46.9688 34.0859 46.9688 31 45.1719C27.875 43.375 26 40.0938 26 36.5ZM35.0625 31.1875C35.0625 30.6797 35.4531 30.25 36 30.25C36.5078 30.25 36.9375 30.6797 36.9375 31.1875V36.0312L40.2578 38.2188C40.6875 38.5312 40.8047 39.1172 40.5312 39.5469C40.2188 39.9766 39.6328 40.0938 39.2031 39.7812L35.4531 37.2812C35.2188 37.125 35.0625 36.8125 35.0625 36.5V31.1875Z" fill="#101418"/>
</svg>
