<svg width="72" height="72" viewBox="0 0 72 72" fill="none" xmlns="http://www.w3.org/2000/svg">
<rect width="72" height="72" rx="36" fill="#FEE1E1"/>
<path d="M41.8594 32.3984L37.7578 36.5L41.8594 40.6406C42.3672 41.1094 42.3672 41.9297 41.8594 42.3984C41.3906 42.9062 40.5703 42.9062 40.1016 42.3984L36 38.2969L31.8594 42.3984C31.3906 42.9062 30.5703 42.9062 30.1016 42.3984C29.5938 41.9297 29.5938 41.1094 30.1016 40.6406L34.2031 36.5L30.1016 32.3984C29.5938 31.9297 29.5938 31.1094 30.1016 30.6406C30.5703 30.1328 31.3906 30.1328 31.8594 30.6406L36 34.7422L40.1016 30.6406C40.5703 30.1328 41.3906 30.1328 41.8594 30.6406C42.3672 31.1094 42.3672 31.9297 41.8594 32.3984Z" fill="#B34D4D"/>
</svg>
