<svg width="18" height="14" viewBox="0 0 18 14" fill="none" xmlns="http://www.w3.org/2000/svg">
<path d="M4.5 1.5V10.25H13.5V1.5H4.5ZM3 10.25V1.5C3 0.6875 3.65625 0 4.5 0H13.5C14.3125 0 15 0.6875 15 1.5V10.25C15.4062 10.25 15.75 10.5938 15.75 11C15.75 11.4375 15.4062 11.75 15 11.75H13.5H4.5H3C2.5625 11.75 2.25 11.4375 2.25 11C2.25 10.5938 2.5625 10.25 3 10.25ZM2 8V9.5H1.5V12.5H16.5V9.5H16V8H16.5C17.3125 8 18 8.6875 18 9.5V12.5C18 13.3438 17.3125 14 16.5 14H1.5C0.65625 14 0 13.3438 0 12.5V9.5C0 8.6875 0.65625 8 1.5 8H2ZM12.0312 4.625L8.6875 7.96875C8.53125 8.09375 8.34375 8.1875 8.15625 8.1875C7.9375 8.1875 7.75 8.09375 7.625 7.96875L5.96875 6.28125C5.65625 6 5.65625 5.53125 5.96875 5.25C6.25 4.9375 6.71875 4.9375 7 5.25L8.15625 6.375L10.9688 3.5625C11.25 3.28125 11.7188 3.28125 12 3.5625C12.3125 3.875 12.3125 4.34375 12 4.625H12.0312Z" fill="#444848"/>
</svg>
