<svg width="14" height="13" viewBox="0 0 14 13" fill="none" xmlns="http://www.w3.org/2000/svg">
<path d="M6.78125 2.07422L1.36719 10.9609C1.3125 11.043 1.3125 11.0977 1.3125 11.1797C1.3125 11.3984 1.47656 11.5625 1.69531 11.5625H12.2773C12.4961 11.5625 12.6875 11.3984 12.6875 11.1797C12.6875 11.0977 12.6602 11.043 12.6055 10.9609L7.19141 2.07422C7.16406 1.99219 7.08203 1.9375 7 1.9375C6.89062 1.9375 6.83594 1.99219 6.78125 2.07422ZM5.66016 1.39062C5.93359 0.925781 6.45312 0.625 7 0.625C7.51953 0.625 8.03906 0.925781 8.3125 1.39062L13.7266 10.2773C13.8906 10.5508 14 10.8516 14 11.1797C14 12.1094 13.2344 12.875 12.2773 12.875H1.69531C0.765625 12.875 0 12.1094 0 11.1797C0 10.8516 0.0820312 10.5508 0.246094 10.2773L5.66016 1.39062ZM7.875 9.8125C7.875 10.3047 7.46484 10.6875 7 10.6875C6.50781 10.6875 6.125 10.3047 6.125 9.8125C6.125 9.34766 6.50781 8.9375 7 8.9375C7.46484 8.9375 7.875 9.34766 7.875 9.8125ZM7.65625 4.78125V7.40625C7.65625 7.78906 7.35547 8.0625 7 8.0625C6.61719 8.0625 6.34375 7.78906 6.34375 7.40625V4.78125C6.34375 4.42578 6.61719 4.125 7 4.125C7.35547 4.125 7.65625 4.42578 7.65625 4.78125Z" fill="#101418"/>
</svg>
