<svg width="347" height="291" viewBox="0 0 347 291" fill="none" xmlns="http://www.w3.org/2000/svg">
<g clip-path="url(#clip0_1_2)">
<path d="M335 23H12C5.37258 23 0 28.3726 0 35V279C0 285.627 5.37258 291 12 291H335C341.627 291 347 285.627 347 279V35C347 28.3726 341.627 23 335 23Z" fill="white"/>
<path d="M335 23.5H12C5.64873 23.5 0.5 28.6487 0.5 35V279C0.5 285.351 5.64873 290.5 12 290.5H335C341.351 290.5 346.5 285.351 346.5 279V35C346.5 28.6487 341.351 23.5 335 23.5Z" stroke="#D0BCFF" stroke-opacity="0.4"/>
<path d="M25.568 89V77.8H30.128C30.736 77.8 31.2853 77.9547 31.776 78.264C32.2773 78.5627 32.6773 78.9733 32.976 79.496C33.2747 80.0187 33.424 80.6 33.424 81.24C33.424 81.88 33.2747 82.4613 32.976 82.984C32.6773 83.5067 32.2773 83.928 31.776 84.248C31.2853 84.5573 30.736 84.712 30.128 84.712H27.296V89H25.568ZM27.296 83.048H30.096C30.384 83.048 30.6453 82.968 30.88 82.808C31.1147 82.6373 31.3013 82.4187 31.44 82.152C31.5893 81.8747 31.664 81.5707 31.664 81.24C31.664 80.9093 31.5893 80.6107 31.44 80.344C31.3013 80.0773 31.1147 79.864 30.88 79.704C30.6453 79.544 30.384 79.464 30.096 79.464H27.296V83.048ZM35.5646 89V80.6H37.2126V89H35.5646ZM36.3646 78.744C36.0126 78.744 35.7406 78.6533 35.5486 78.472C35.3566 78.2907 35.2606 78.0347 35.2606 77.704C35.2606 77.3947 35.3566 77.144 35.5486 76.952C35.7513 76.76 36.0233 76.664 36.3646 76.664C36.7166 76.664 36.9886 76.7547 37.1806 76.936C37.3726 77.1173 37.4686 77.3733 37.4686 77.704C37.4686 78.0133 37.3673 78.264 37.1646 78.456C36.9726 78.648 36.706 78.744 36.3646 78.744ZM39.7458 89V80.6H41.3938V82.328L41.1058 82.52C41.2124 82.1467 41.4204 81.8053 41.7298 81.496C42.0391 81.176 42.4071 80.92 42.8338 80.728C43.2604 80.5253 43.6978 80.424 44.1458 80.424C44.7858 80.424 45.3191 80.552 45.7458 80.808C46.1724 81.0533 46.4924 81.432 46.7058 81.944C46.9191 82.456 47.0258 83.1013 47.0258 83.88V89H45.3778V83.992C45.3778 83.512 45.3138 83.1173 45.1858 82.808C45.0578 82.488 44.8604 82.2587 44.5938 82.12C44.3271 81.9707 43.9964 81.9067 43.6018 81.928C43.2818 81.928 42.9884 81.9813 42.7218 82.088C42.4551 82.184 42.2204 82.3227 42.0178 82.504C41.8258 82.6853 41.6711 82.8987 41.5538 83.144C41.4471 83.3787 41.3938 83.6347 41.3938 83.912V89H40.5778C40.4391 89 40.3004 89 40.1618 89C40.0231 89 39.8844 89 39.7458 89ZM52.9938 89L57.3298 77.8H59.0898L63.3938 89H61.5538L58.9938 82.248C58.9618 82.1733 58.8978 81.992 58.8018 81.704C58.7164 81.416 58.6151 81.096 58.4978 80.744C58.3804 80.392 58.2738 80.072 58.1778 79.784C58.0818 79.4853 58.0178 79.2933 57.9858 79.208L58.3538 79.192C58.2898 79.3733 58.2098 79.6027 58.1138 79.88C58.0284 80.1573 57.9324 80.4507 57.8258 80.76C57.7298 81.0693 57.6338 81.3627 57.5378 81.64C57.4418 81.9067 57.3618 82.1307 57.2977 82.312L54.7538 89H52.9938ZM54.9138 86.216L55.5538 84.552H60.6418L61.3778 86.216H54.9138ZM68.8209 89.16C68.2129 89.16 67.6475 89.08 67.1249 88.92C66.6129 88.76 66.1435 88.52 65.7169 88.2C65.3009 87.8693 64.9275 87.464 64.5969 86.984L65.7809 85.624C66.3035 86.3707 66.8049 86.888 67.2849 87.176C67.7649 87.464 68.3355 87.608 68.9969 87.608C69.4022 87.608 69.7702 87.544 70.1009 87.416C70.4315 87.288 70.6929 87.112 70.8849 86.888C71.0769 86.664 71.1729 86.408 71.1729 86.12C71.1729 85.928 71.1409 85.7467 71.0769 85.576C71.0129 85.4053 70.9115 85.2507 70.7729 85.112C70.6449 84.9733 70.4742 84.8453 70.2609 84.728C70.0582 84.6107 69.8182 84.5093 69.5409 84.424C69.2635 84.328 68.9435 84.248 68.5809 84.184C68.0049 84.0667 67.5035 83.912 67.0769 83.72C66.6502 83.528 66.2929 83.288 66.0049 83C65.7169 82.712 65.5035 82.3867 65.3649 82.024C65.2262 81.6507 65.1569 81.2347 65.1569 80.776C65.1569 80.328 65.2529 79.912 65.4449 79.528C65.6475 79.144 65.9195 78.8133 66.2609 78.536C66.6129 78.248 67.0235 78.0293 67.4929 77.88C67.9622 77.72 68.4689 77.64 69.0129 77.64C69.5889 77.64 70.1169 77.7147 70.5969 77.864C71.0769 78.0133 71.5035 78.2373 71.8769 78.536C72.2502 78.824 72.5595 79.1813 72.8049 79.608L71.5889 80.808C71.3755 80.456 71.1355 80.1627 70.8689 79.928C70.6022 79.6827 70.3089 79.5013 69.9889 79.384C69.6689 79.256 69.3275 79.192 68.9649 79.192C68.5489 79.192 68.1862 79.256 67.8769 79.384C67.5675 79.512 67.3222 79.6933 67.1409 79.928C66.9702 80.152 66.8849 80.4187 66.8849 80.728C66.8849 80.952 66.9275 81.16 67.0129 81.352C67.0982 81.5333 67.2262 81.6987 67.3969 81.848C67.5782 81.9867 67.8182 82.1147 68.1169 82.232C68.4155 82.3387 68.7729 82.4347 69.1889 82.52C69.7755 82.648 70.2982 82.8133 70.7569 83.016C71.2155 83.208 71.6049 83.4373 71.9249 83.704C72.2449 83.9707 72.4849 84.2693 72.6449 84.6C72.8155 84.9307 72.9009 85.288 72.9009 85.672C72.9009 86.3867 72.7355 87.0053 72.4049 87.528C72.0742 88.0507 71.6049 88.456 70.9969 88.744C70.3889 89.0213 69.6635 89.16 68.8209 89.16ZM74.9333 89V87.4H76.7413V79.4H74.9333V77.8H80.2773V79.4H78.4693V87.4H80.2773V89H74.9333ZM89.8583 89L86.2903 77.8H88.1303L90.2903 84.808C90.3543 84.9787 90.4129 85.1813 90.4663 85.416C90.5196 85.64 90.5676 85.8693 90.6102 86.104C90.6529 86.3387 90.6903 86.5573 90.7223 86.76C90.7649 86.9627 90.8023 87.128 90.8343 87.256L90.3703 87.24C90.5303 86.6747 90.6529 86.2373 90.7383 85.928C90.8343 85.6187 90.9089 85.384 90.9623 85.224C91.0156 85.0533 91.0636 84.9093 91.1063 84.792L93.1223 79.736H94.6743L96.6263 84.792C96.7329 85.048 96.8236 85.304 96.8983 85.56C96.9836 85.8053 97.0583 86.056 97.1223 86.312C97.1863 86.5573 97.2556 86.8187 97.3303 87.096L96.9143 87.208C96.9676 86.92 97.0049 86.696 97.0263 86.536C97.0583 86.3653 97.0849 86.2267 97.1063 86.12C97.1276 86.0133 97.1489 85.912 97.1703 85.816C97.1916 85.7093 97.2236 85.576 97.2663 85.416C97.3196 85.256 97.3889 85.0373 97.4743 84.76L99.6023 77.8H101.458L97.8903 89H96.6903L93.7303 81.992L93.8743 82.056L91.0263 89H89.8583ZM105.822 89.16C105.128 89.16 104.494 88.968 103.918 88.584C103.352 88.2 102.899 87.6773 102.558 87.016C102.216 86.3547 102.046 85.608 102.046 84.776C102.046 83.9333 102.216 83.1867 102.558 82.536C102.91 81.8747 103.379 81.3573 103.966 80.984C104.563 80.6107 105.23 80.424 105.966 80.424C106.403 80.424 106.803 80.488 107.166 80.616C107.528 80.744 107.843 80.9253 108.11 81.16C108.387 81.384 108.611 81.6453 108.782 81.944C108.963 82.2427 109.075 82.5627 109.118 82.904L108.75 82.776V80.6H110.414V89H108.75V87L109.134 86.888C109.07 87.176 108.936 87.4587 108.734 87.736C108.542 88.0027 108.291 88.2427 107.982 88.456C107.683 88.6693 107.347 88.84 106.974 88.968C106.611 89.096 106.227 89.16 105.822 89.16ZM106.254 87.64C106.755 87.64 107.198 87.5173 107.582 87.272C107.966 87.0267 108.264 86.6907 108.478 86.264C108.702 85.8267 108.814 85.3307 108.814 84.776C108.814 84.232 108.702 83.7467 108.478 83.32C108.264 82.8933 107.966 82.5573 107.582 82.312C107.198 82.0667 106.755 81.944 106.254 81.944C105.763 81.944 105.326 82.0667 104.942 82.312C104.568 82.5573 104.27 82.8933 104.046 83.32C103.832 83.7467 103.726 84.232 103.726 84.776C103.726 85.3307 103.832 85.8267 104.046 86.264C104.27 86.6907 104.568 87.0267 104.942 87.272C105.326 87.5173 105.763 87.64 106.254 87.64ZM112.747 89V77.16H114.395V89H112.747ZM116.762 89V77.16H118.41V89H116.762ZM124.51 89.16C123.646 89.16 122.878 88.9787 122.206 88.616C121.544 88.2427 121.022 87.736 120.638 87.096C120.264 86.456 120.078 85.72 120.078 84.888C120.078 84.2267 120.184 83.624 120.398 83.08C120.611 82.536 120.904 82.0667 121.278 81.672C121.662 81.2667 122.115 80.9573 122.638 80.744C123.171 80.52 123.747 80.408 124.366 80.408C124.91 80.408 125.416 80.5147 125.886 80.728C126.355 80.9307 126.76 81.2133 127.102 81.576C127.454 81.9387 127.72 82.3707 127.902 82.872C128.094 83.3627 128.184 83.9013 128.174 84.488L128.158 85.192H121.294L120.926 83.88H126.734L126.494 84.152V83.768C126.462 83.416 126.344 83.1013 126.142 82.824C125.939 82.5467 125.683 82.328 125.374 82.168C125.064 82.008 124.728 81.928 124.366 81.928C123.79 81.928 123.304 82.04 122.91 82.264C122.515 82.4773 122.216 82.7973 122.014 83.224C121.811 83.64 121.71 84.1573 121.71 84.776C121.71 85.3627 121.832 85.8747 122.078 86.312C122.323 86.7387 122.67 87.0693 123.118 87.304C123.566 87.5387 124.083 87.656 124.67 87.656C125.086 87.656 125.47 87.5867 125.822 87.448C126.184 87.3093 126.574 87.0587 126.99 86.696L127.822 87.864C127.566 88.12 127.251 88.344 126.878 88.536C126.515 88.728 126.126 88.8827 125.71 89C125.304 89.1067 124.904 89.16 124.51 89.16ZM131.005 89V78.456H132.653V89H131.005ZM129.261 82.2V80.6H134.605V82.2H129.261ZM141.63 89V78.456H143.278V89H141.63ZM139.886 82.2V80.6H145.23V82.2H139.886ZM150.428 89.16C149.607 89.16 148.871 88.9733 148.22 88.6C147.58 88.216 147.073 87.6987 146.7 87.048C146.327 86.3867 146.14 85.6347 146.14 84.792C146.14 83.9493 146.327 83.2027 146.7 82.552C147.073 81.8907 147.58 81.3733 148.22 81C148.871 80.616 149.607 80.424 150.428 80.424C151.239 80.424 151.964 80.616 152.604 81C153.255 81.3733 153.767 81.8907 154.14 82.552C154.513 83.2027 154.7 83.9493 154.7 84.792C154.7 85.6347 154.513 86.3867 154.14 87.048C153.767 87.6987 153.255 88.216 152.604 88.6C151.964 88.9733 151.239 89.16 150.428 89.16ZM150.428 87.656C150.929 87.656 151.377 87.5333 151.772 87.288C152.167 87.032 152.476 86.6907 152.7 86.264C152.924 85.8267 153.031 85.336 153.02 84.792C153.031 84.2373 152.924 83.7467 152.7 83.32C152.476 82.8827 152.167 82.5413 151.772 82.296C151.377 82.0507 150.929 81.928 150.428 81.928C149.927 81.928 149.473 82.056 149.068 82.312C148.673 82.5573 148.364 82.8987 148.14 83.336C147.916 83.7627 147.809 84.248 147.82 84.792C147.809 85.336 147.916 85.8267 148.14 86.264C148.364 86.6907 148.673 87.032 149.068 87.288C149.473 87.5333 149.927 87.656 150.428 87.656ZM162.388 92.68L164.084 88.76L164.1 90.072L159.908 80.6H161.828L164.452 86.776C164.505 86.8827 164.569 87.048 164.644 87.272C164.719 87.4853 164.783 87.6987 164.836 87.912L164.42 88.008C164.505 87.784 164.585 87.56 164.66 87.336C164.745 87.112 164.825 86.888 164.9 86.664L167.092 80.6H169.044L165.588 89L164.164 92.68H162.388ZM173.897 89.16C173.075 89.16 172.339 88.9733 171.689 88.6C171.049 88.216 170.542 87.6987 170.169 87.048C169.795 86.3867 169.609 85.6347 169.609 84.792C169.609 83.9493 169.795 83.2027 170.169 82.552C170.542 81.8907 171.049 81.3733 171.689 81C172.339 80.616 173.075 80.424 173.897 80.424C174.707 80.424 175.433 80.616 176.073 81C176.723 81.3733 177.235 81.8907 177.609 82.552C177.982 83.2027 178.169 83.9493 178.169 84.792C178.169 85.6347 177.982 86.3867 177.609 87.048C177.235 87.6987 176.723 88.216 176.073 88.6C175.433 88.9733 174.707 89.16 173.897 89.16ZM173.897 87.656C174.398 87.656 174.846 87.5333 175.241 87.288C175.635 87.032 175.945 86.6907 176.169 86.264C176.393 85.8267 176.499 85.336 176.489 84.792C176.499 84.2373 176.393 83.7467 176.169 83.32C175.945 82.8827 175.635 82.5413 175.241 82.296C174.846 82.0507 174.398 81.928 173.897 81.928C173.395 81.928 172.942 82.056 172.537 82.312C172.142 82.5573 171.833 82.8987 171.609 83.336C171.385 83.7627 171.278 84.248 171.289 84.792C171.278 85.336 171.385 85.8267 171.609 86.264C171.833 86.6907 172.142 87.032 172.537 87.288C172.942 87.5333 173.395 87.656 173.897 87.656ZM182.909 89.16C182.311 89.16 181.789 89.0213 181.341 88.744C180.903 88.4667 180.562 88.0773 180.317 87.576C180.082 87.0747 179.965 86.4773 179.965 85.784V80.6H181.613V85.336C181.613 85.8267 181.687 86.2533 181.837 86.616C181.997 86.968 182.221 87.24 182.509 87.432C182.807 87.624 183.165 87.72 183.581 87.72C183.89 87.72 184.173 87.672 184.429 87.576C184.685 87.4693 184.903 87.3253 185.085 87.144C185.277 86.9627 185.426 86.744 185.533 86.488C185.639 86.232 185.693 85.9547 185.693 85.656V80.6H187.341V89H185.693V87.24L185.981 87.048C185.853 87.4427 185.634 87.8 185.325 88.12C185.026 88.44 184.669 88.696 184.253 88.888C183.837 89.0693 183.389 89.16 182.909 89.16ZM189.652 89V80.6H191.316V83.24L191.156 82.6C191.273 82.1947 191.471 81.8267 191.748 81.496C192.036 81.1653 192.361 80.904 192.724 80.712C193.097 80.52 193.481 80.424 193.876 80.424C194.057 80.424 194.228 80.44 194.388 80.472C194.559 80.504 194.692 80.5413 194.788 80.584L194.356 82.376C194.228 82.3227 194.084 82.28 193.924 82.248C193.775 82.2053 193.625 82.184 193.476 82.184C193.188 82.184 192.911 82.2427 192.644 82.36C192.388 82.4667 192.159 82.6213 191.956 82.824C191.764 83.016 191.609 83.2453 191.492 83.512C191.375 83.768 191.316 84.0507 191.316 84.36V89H189.652ZM201.63 89V78.456H203.278V89H201.63ZM199.886 82.2V80.6H205.23V82.2H199.886ZM210.428 89.16C209.607 89.16 208.871 88.9733 208.22 88.6C207.58 88.216 207.073 87.6987 206.7 87.048C206.327 86.3867 206.14 85.6347 206.14 84.792C206.14 83.9493 206.327 83.2027 206.7 82.552C207.073 81.8907 207.58 81.3733 208.22 81C208.871 80.616 209.607 80.424 210.428 80.424C211.239 80.424 211.964 80.616 212.604 81C213.255 81.3733 213.767 81.8907 214.14 82.552C214.513 83.2027 214.7 83.9493 214.7 84.792C214.7 85.6347 214.513 86.3867 214.14 87.048C213.767 87.6987 213.255 88.216 212.604 88.6C211.964 88.9733 211.239 89.16 210.428 89.16ZM210.428 87.656C210.929 87.656 211.377 87.5333 211.772 87.288C212.167 87.032 212.476 86.6907 212.7 86.264C212.924 85.8267 213.031 85.336 213.02 84.792C213.031 84.2373 212.924 83.7467 212.7 83.32C212.476 82.8827 212.167 82.5413 211.772 82.296C211.377 82.0507 210.929 81.928 210.428 81.928C209.927 81.928 209.473 82.056 209.068 82.312C208.673 82.5573 208.364 82.8987 208.14 83.336C207.916 83.7627 207.809 84.248 207.82 84.792C207.809 85.336 207.916 85.8267 208.14 86.264C208.364 86.6907 208.673 87.032 209.068 87.288C209.473 87.5333 209.927 87.656 210.428 87.656ZM220.272 89.16C219.45 89.16 218.714 88.9733 218.064 88.6C217.424 88.216 216.917 87.6987 216.544 87.048C216.17 86.3867 215.984 85.6347 215.984 84.792C215.984 83.9493 216.17 83.2027 216.544 82.552C216.917 81.8907 217.424 81.3733 218.064 81C218.714 80.616 219.45 80.424 220.272 80.424C221.082 80.424 221.808 80.616 222.448 81C223.098 81.3733 223.61 81.8907 223.984 82.552C224.357 83.2027 224.544 83.9493 224.544 84.792C224.544 85.6347 224.357 86.3867 223.984 87.048C223.61 87.6987 223.098 88.216 222.448 88.6C221.808 88.9733 221.082 89.16 220.272 89.16ZM220.272 87.656C220.773 87.656 221.221 87.5333 221.616 87.288C222.01 87.032 222.32 86.6907 222.544 86.264C222.768 85.8267 222.874 85.336 222.864 84.792C222.874 84.2373 222.768 83.7467 222.544 83.32C222.32 82.8827 222.01 82.5413 221.616 82.296C221.221 82.0507 220.773 81.928 220.272 81.928C219.77 81.928 219.317 82.056 218.912 82.312C218.517 82.5573 218.208 82.8987 217.984 83.336C217.76 83.7627 217.653 84.248 217.664 84.792C217.653 85.336 217.76 85.8267 217.984 86.264C218.208 86.6907 218.517 87.032 218.912 87.288C219.317 87.5333 219.77 87.656 220.272 87.656ZM226.372 89V77.16H228.02V89H226.372ZM234.771 89.16C234.408 89.16 234.046 89.1013 233.683 88.984C233.331 88.8667 233.006 88.712 232.707 88.52C232.419 88.3173 232.174 88.0987 231.971 87.864C231.779 87.6187 231.651 87.3733 231.587 87.128L232.003 86.904V88.952H230.355V77.16H232.003V82.52L231.747 82.376C231.8 82.1307 231.918 81.896 232.099 81.672C232.28 81.4373 232.51 81.2293 232.787 81.048C233.075 80.856 233.384 80.7067 233.715 80.6C234.046 80.4827 234.382 80.424 234.723 80.424C235.48 80.424 236.152 80.6107 236.739 80.984C237.326 81.3573 237.79 81.8747 238.131 82.536C238.472 83.1867 238.643 83.9333 238.643 84.776C238.643 85.6187 238.472 86.3707 238.131 87.032C237.8 87.6933 237.342 88.216 236.755 88.6C236.168 88.9733 235.507 89.16 234.771 89.16ZM234.499 87.656C234.99 87.656 235.427 87.5333 235.811 87.288C236.195 87.032 236.499 86.6907 236.723 86.264C236.947 85.8267 237.059 85.3307 237.059 84.776C237.059 84.232 236.947 83.7467 236.723 83.32C236.51 82.8827 236.211 82.5413 235.827 82.296C235.443 82.0507 235 81.928 234.499 81.928C233.998 81.928 233.555 82.0507 233.171 82.296C232.787 82.5413 232.483 82.8827 232.259 83.32C232.035 83.7467 231.923 84.232 231.923 84.776C231.923 85.3307 232.035 85.8267 232.259 86.264C232.483 86.6907 232.787 87.032 233.171 87.288C233.555 87.5333 233.998 87.656 234.499 87.656ZM243.665 89.16C242.972 89.16 242.337 88.968 241.761 88.584C241.196 88.2 240.743 87.6773 240.401 87.016C240.06 86.3547 239.889 85.608 239.889 84.776C239.889 83.9333 240.06 83.1867 240.401 82.536C240.753 81.8747 241.223 81.3573 241.809 80.984C242.407 80.6107 243.073 80.424 243.809 80.424C244.247 80.424 244.647 80.488 245.009 80.616C245.372 80.744 245.687 80.9253 245.953 81.16C246.231 81.384 246.455 81.6453 246.625 81.944C246.807 82.2427 246.919 82.5627 246.961 82.904L246.593 82.776V80.6H248.257V89H246.593V87L246.977 86.888C246.913 87.176 246.78 87.4587 246.577 87.736C246.385 88.0027 246.135 88.2427 245.825 88.456C245.527 88.6693 245.191 88.84 244.817 88.968C244.455 89.096 244.071 89.16 243.665 89.16ZM244.097 87.64C244.599 87.64 245.041 87.5173 245.425 87.272C245.809 87.0267 246.108 86.6907 246.321 86.264C246.545 85.8267 246.657 85.3307 246.657 84.776C246.657 84.232 246.545 83.7467 246.321 83.32C246.108 82.8933 245.809 82.5573 245.425 82.312C245.041 82.0667 244.599 81.944 244.097 81.944C243.607 81.944 243.169 82.0667 242.785 82.312C242.412 82.5573 242.113 82.8933 241.889 83.32C241.676 83.7467 241.569 84.232 241.569 84.776C241.569 85.3307 241.676 85.8267 241.889 86.264C242.113 86.6907 242.412 87.0267 242.785 87.272C243.169 87.5173 243.607 87.64 244.097 87.64ZM250.558 89V80.6H252.222V83.24L252.062 82.6C252.18 82.1947 252.377 81.8267 252.654 81.496C252.942 81.1653 253.268 80.904 253.63 80.712C254.004 80.52 254.388 80.424 254.782 80.424C254.964 80.424 255.134 80.44 255.294 80.472C255.465 80.504 255.598 80.5413 255.694 80.584L255.262 82.376C255.134 82.3227 254.99 82.28 254.83 82.248C254.681 82.2053 254.532 82.184 254.382 82.184C254.094 82.184 253.817 82.2427 253.55 82.36C253.294 82.4667 253.065 82.6213 252.862 82.824C252.67 83.016 252.516 83.2453 252.398 83.512C252.281 83.768 252.222 84.0507 252.222 84.36V89H250.558ZM262.408 89V79.656C262.408 79.176 262.514 78.7493 262.728 78.376C262.941 78.0027 263.234 77.7093 263.608 77.496C263.981 77.2827 264.413 77.176 264.904 77.176C265.245 77.176 265.565 77.24 265.864 77.368C266.162 77.496 266.402 77.6667 266.584 77.88L266.024 79.144C265.885 79.016 265.73 78.9147 265.56 78.84C265.4 78.7547 265.245 78.712 265.096 78.712C264.872 78.712 264.68 78.7493 264.52 78.824C264.37 78.888 264.258 78.9947 264.184 79.144C264.109 79.2827 264.072 79.4533 264.072 79.656V89H263.24C263.101 89 262.962 89 262.824 89C262.685 89 262.546 89 262.408 89ZM261.064 82.264V80.744H266.056V82.264H261.064ZM271.241 89.16C270.419 89.16 269.683 88.9733 269.033 88.6C268.393 88.216 267.886 87.6987 267.513 87.048C267.139 86.3867 266.953 85.6347 266.953 84.792C266.953 83.9493 267.139 83.2027 267.513 82.552C267.886 81.8907 268.393 81.3733 269.033 81C269.683 80.616 270.419 80.424 271.241 80.424C272.051 80.424 272.777 80.616 273.417 81C274.067 81.3733 274.579 81.8907 274.953 82.552C275.326 83.2027 275.513 83.9493 275.513 84.792C275.513 85.6347 275.326 86.3867 274.953 87.048C274.579 87.6987 274.067 88.216 273.417 88.6C272.777 88.9733 272.051 89.16 271.241 89.16ZM271.241 87.656C271.742 87.656 272.19 87.5333 272.585 87.288C272.979 87.032 273.289 86.6907 273.513 86.264C273.737 85.8267 273.843 85.336 273.833 84.792C273.843 84.2373 273.737 83.7467 273.513 83.32C273.289 82.8827 272.979 82.5413 272.585 82.296C272.19 82.0507 271.742 81.928 271.241 81.928C270.739 81.928 270.286 82.056 269.881 82.312C269.486 82.5573 269.177 82.8987 268.953 83.336C268.729 83.7627 268.622 84.248 268.633 84.792C268.622 85.336 268.729 85.8267 268.953 86.264C269.177 86.6907 269.486 87.032 269.881 87.288C270.286 87.5333 270.739 87.656 271.241 87.656ZM277.308 89V80.6H278.972V83.24L278.812 82.6C278.93 82.1947 279.127 81.8267 279.404 81.496C279.692 81.1653 280.018 80.904 280.38 80.712C280.754 80.52 281.138 80.424 281.532 80.424C281.714 80.424 281.884 80.44 282.044 80.472C282.215 80.504 282.348 80.5413 282.444 80.584L282.012 82.376C281.884 82.3227 281.74 82.28 281.58 82.248C281.431 82.2053 281.282 82.184 281.132 82.184C280.844 82.184 280.567 82.2427 280.3 82.36C280.044 82.4667 279.815 82.6213 279.612 82.824C279.42 83.016 279.266 83.2453 279.148 83.512C279.031 83.768 278.972 84.0507 278.972 84.36V89H277.308ZM29.072 113.16C28.208 113.16 27.44 112.979 26.768 112.616C26.1067 112.243 25.584 111.736 25.2 111.096C24.8267 110.456 24.64 109.72 24.64 108.888C24.64 108.227 24.7467 107.624 24.96 107.08C25.1733 106.536 25.4667 106.067 25.84 105.672C26.224 105.267 26.6773 104.957 27.2 104.744C27.7333 104.52 28.3093 104.408 28.928 104.408C29.472 104.408 29.9787 104.515 30.448 104.728C30.9173 104.931 31.3227 105.213 31.664 105.576C32.016 105.939 32.2827 106.371 32.464 106.872C32.656 107.363 32.7467 107.901 32.736 108.488L32.72 109.192H25.856L25.488 107.88H31.296L31.056 108.152V107.768C31.024 107.416 30.9067 107.101 30.704 106.824C30.5013 106.547 30.2453 106.328 29.936 106.168C29.6267 106.008 29.2907 105.928 28.928 105.928C28.352 105.928 27.8667 106.04 27.472 106.264C27.0773 106.477 26.7787 106.797 26.576 107.224C26.3733 107.64 26.272 108.157 26.272 108.776C26.272 109.363 26.3947 109.875 26.64 110.312C26.8853 110.739 27.232 111.069 27.68 111.304C28.128 111.539 28.6453 111.656 29.232 111.656C29.648 111.656 30.032 111.587 30.384 111.448C30.7467 111.309 31.136 111.059 31.552 110.696L32.384 111.864C32.128 112.12 31.8133 112.344 31.44 112.536C31.0773 112.728 30.688 112.883 30.272 113C29.8667 113.107 29.4667 113.16 29.072 113.16ZM37.759 113.16C37.0657 113.16 36.431 112.968 35.855 112.584C35.2897 112.2 34.8363 111.677 34.495 111.016C34.1537 110.355 33.983 109.608 33.983 108.776C33.983 107.933 34.1537 107.187 34.495 106.536C34.847 105.875 35.3163 105.357 35.903 104.984C36.5003 104.611 37.167 104.424 37.903 104.424C38.3403 104.424 38.7403 104.488 39.103 104.616C39.4657 104.744 39.7803 104.925 40.047 105.16C40.3243 105.384 40.5483 105.645 40.719 105.944C40.9003 106.243 41.0123 106.563 41.055 106.904L40.687 106.776V104.6H42.351V113H40.687V111L41.071 110.888C41.007 111.176 40.8737 111.459 40.671 111.736C40.479 112.003 40.2283 112.243 39.919 112.456C39.6203 112.669 39.2843 112.84 38.911 112.968C38.5483 113.096 38.1643 113.16 37.759 113.16ZM38.191 111.64C38.6923 111.64 39.135 111.517 39.519 111.272C39.903 111.027 40.2017 110.691 40.415 110.264C40.639 109.827 40.751 109.331 40.751 108.776C40.751 108.232 40.639 107.747 40.415 107.32C40.2017 106.893 39.903 106.557 39.519 106.312C39.135 106.067 38.6923 105.944 38.191 105.944C37.7003 105.944 37.263 106.067 36.879 106.312C36.5057 106.557 36.207 106.893 35.983 107.32C35.7697 107.747 35.663 108.232 35.663 108.776C35.663 109.331 35.7697 109.827 35.983 110.264C36.207 110.691 36.5057 111.027 36.879 111.272C37.263 111.517 37.7003 111.64 38.191 111.64ZM47.452 113.16C46.748 113.16 46.1133 113.037 45.548 112.792C44.9827 112.547 44.5133 112.184 44.14 111.704L45.26 110.744C45.58 111.117 45.9267 111.389 46.3 111.56C46.684 111.72 47.116 111.8 47.596 111.8C47.788 111.8 47.964 111.779 48.124 111.736C48.2947 111.683 48.4387 111.608 48.556 111.512C48.684 111.416 48.78 111.304 48.844 111.176C48.908 111.037 48.94 110.888 48.94 110.728C48.94 110.451 48.8387 110.227 48.636 110.056C48.5293 109.981 48.3587 109.901 48.124 109.816C47.9 109.72 47.6067 109.624 47.244 109.528C46.6253 109.368 46.1187 109.187 45.724 108.984C45.3293 108.781 45.0253 108.552 44.812 108.296C44.652 108.093 44.5347 107.875 44.46 107.64C44.3853 107.395 44.348 107.128 44.348 106.84C44.348 106.488 44.4227 106.168 44.572 105.88C44.732 105.581 44.9453 105.325 45.212 105.112C45.4893 104.888 45.8093 104.717 46.172 104.6C46.5453 104.483 46.94 104.424 47.356 104.424C47.7507 104.424 48.14 104.477 48.524 104.584C48.9187 104.691 49.2813 104.845 49.612 105.048C49.9427 105.251 50.22 105.491 50.444 105.768L49.5 106.808C49.2973 106.605 49.0733 106.429 48.828 106.28C48.5933 106.12 48.3533 105.997 48.108 105.912C47.8627 105.827 47.6387 105.784 47.436 105.784C47.212 105.784 47.0093 105.805 46.828 105.848C46.6467 105.891 46.492 105.955 46.364 106.04C46.2467 106.125 46.156 106.232 46.092 106.36C46.028 106.488 45.996 106.632 45.996 106.792C46.0067 106.931 46.0387 107.064 46.092 107.192C46.156 107.309 46.2413 107.411 46.348 107.496C46.4653 107.581 46.6413 107.672 46.876 107.768C47.1107 107.864 47.4093 107.955 47.772 108.04C48.3053 108.179 48.7427 108.333 49.084 108.504C49.436 108.664 49.7133 108.851 49.916 109.064C50.1293 109.267 50.2787 109.501 50.364 109.768C50.4493 110.035 50.492 110.333 50.492 110.664C50.492 111.144 50.3533 111.576 50.076 111.96C49.8093 112.333 49.4467 112.627 48.988 112.84C48.5293 113.053 48.0173 113.16 47.452 113.16ZM53.7163 116.68L55.4123 112.76L55.4283 114.072L51.2363 104.6H53.1562L55.7803 110.776C55.8336 110.883 55.8976 111.048 55.9723 111.272C56.0469 111.485 56.1109 111.699 56.1643 111.912L55.7483 112.008C55.8336 111.784 55.9136 111.56 55.9883 111.336C56.0736 111.112 56.1536 110.888 56.2283 110.664L58.4203 104.6H60.3723L56.9163 113L55.4923 116.68H53.7163ZM69.3215 113.16C68.6282 113.16 67.9935 112.968 67.4175 112.584C66.8522 112.2 66.3988 111.677 66.0575 111.016C65.7162 110.355 65.5455 109.608 65.5455 108.776C65.5455 107.933 65.7162 107.187 66.0575 106.536C66.4095 105.875 66.8788 105.357 67.4655 104.984C68.0628 104.611 68.7295 104.424 69.4655 104.424C69.9028 104.424 70.3028 104.488 70.6655 104.616C71.0282 104.744 71.3428 104.925 71.6095 105.16C71.8868 105.384 72.1108 105.645 72.2815 105.944C72.4628 106.243 72.5748 106.563 72.6175 106.904L72.2495 106.776V104.6H73.9135V113H72.2495V111L72.6335 110.888C72.5695 111.176 72.4362 111.459 72.2335 111.736C72.0415 112.003 71.7908 112.243 71.4815 112.456C71.1828 112.669 70.8468 112.84 70.4735 112.968C70.1108 113.096 69.7268 113.16 69.3215 113.16ZM69.7535 111.64C70.2548 111.64 70.6975 111.517 71.0815 111.272C71.4655 111.027 71.7642 110.691 71.9775 110.264C72.2015 109.827 72.3135 109.331 72.3135 108.776C72.3135 108.232 72.2015 107.747 71.9775 107.32C71.7642 106.893 71.4655 106.557 71.0815 106.312C70.6975 106.067 70.2548 105.944 69.7535 105.944C69.2628 105.944 68.8255 106.067 68.4415 106.312C68.0682 106.557 67.7695 106.893 67.5455 107.32C67.3322 107.747 67.2255 108.232 67.2255 108.776C67.2255 109.331 67.3322 109.827 67.5455 110.264C67.7695 110.691 68.0682 111.027 68.4415 111.272C68.8255 111.517 69.2628 111.64 69.7535 111.64ZM79.7825 113.16C79.0038 113.16 78.3052 112.968 77.6865 112.584C77.0785 112.2 76.5932 111.677 76.2305 111.016C75.8785 110.355 75.7025 109.613 75.7025 108.792C75.7025 107.971 75.8785 107.229 76.2305 106.568C76.5932 105.907 77.0785 105.384 77.6865 105C78.3052 104.616 79.0038 104.424 79.7825 104.424C80.5292 104.424 81.2065 104.579 81.8145 104.888C82.4332 105.187 82.9025 105.597 83.2225 106.12L82.3105 107.24C82.1398 106.995 81.9212 106.771 81.6545 106.568C81.3878 106.365 81.1052 106.205 80.8065 106.088C80.5078 105.971 80.2198 105.912 79.9425 105.912C79.4305 105.912 78.9718 106.04 78.5665 106.296C78.1718 106.541 77.8572 106.883 77.6225 107.32C77.3878 107.757 77.2705 108.248 77.2705 108.792C77.2705 109.336 77.3932 109.827 77.6385 110.264C77.8838 110.691 78.2092 111.032 78.6145 111.288C79.0198 111.544 79.4678 111.672 79.9585 111.672C80.2465 111.672 80.5238 111.624 80.7905 111.528C81.0678 111.432 81.3345 111.288 81.5905 111.096C81.8465 110.904 82.0865 110.669 82.3105 110.392L83.2225 111.512C82.8812 111.992 82.3905 112.387 81.7505 112.696C81.1212 113.005 80.4652 113.16 79.7825 113.16ZM88.345 113.16C87.5663 113.16 86.8677 112.968 86.249 112.584C85.641 112.2 85.1557 111.677 84.793 111.016C84.441 110.355 84.265 109.613 84.265 108.792C84.265 107.971 84.441 107.229 84.793 106.568C85.1557 105.907 85.641 105.384 86.249 105C86.8677 104.616 87.5663 104.424 88.345 104.424C89.0917 104.424 89.769 104.579 90.377 104.888C90.9957 105.187 91.465 105.597 91.785 106.12L90.873 107.24C90.7023 106.995 90.4837 106.771 90.217 106.568C89.9503 106.365 89.6677 106.205 89.369 106.088C89.0703 105.971 88.7823 105.912 88.505 105.912C87.993 105.912 87.5343 106.04 87.129 106.296C86.7343 106.541 86.4197 106.883 86.185 107.32C85.9503 107.757 85.833 108.248 85.833 108.792C85.833 109.336 85.9557 109.827 86.201 110.264C86.4463 110.691 86.7717 111.032 87.177 111.288C87.5823 111.544 88.0303 111.672 88.521 111.672C88.809 111.672 89.0863 111.624 89.353 111.528C89.6303 111.432 89.897 111.288 90.153 111.096C90.409 110.904 90.649 110.669 90.873 110.392L91.785 111.512C91.4437 111.992 90.953 112.387 90.313 112.696C89.6837 113.005 89.0277 113.16 88.345 113.16ZM97.2595 113.16C96.3955 113.16 95.6275 112.979 94.9555 112.616C94.2942 112.243 93.7715 111.736 93.3875 111.096C93.0142 110.456 92.8275 109.72 92.8275 108.888C92.8275 108.227 92.9342 107.624 93.1475 107.08C93.3608 106.536 93.6542 106.067 94.0275 105.672C94.4115 105.267 94.8648 104.957 95.3875 104.744C95.9208 104.52 96.4968 104.408 97.1155 104.408C97.6595 104.408 98.1662 104.515 98.6355 104.728C99.1048 104.931 99.5102 105.213 99.8515 105.576C100.204 105.939 100.47 106.371 100.652 106.872C100.844 107.363 100.934 107.901 100.924 108.488L100.908 109.192H94.0435L93.6755 107.88H99.4835L99.2435 108.152V107.768C99.2115 107.416 99.0942 107.101 98.8915 106.824C98.6888 106.547 98.4328 106.328 98.1235 106.168C97.8142 106.008 97.4782 105.928 97.1155 105.928C96.5395 105.928 96.0542 106.04 95.6595 106.264C95.2648 106.477 94.9662 106.797 94.7635 107.224C94.5608 107.64 94.4595 108.157 94.4595 108.776C94.4595 109.363 94.5822 109.875 94.8275 110.312C95.0728 110.739 95.4195 111.069 95.8675 111.304C96.3155 111.539 96.8328 111.656 97.4195 111.656C97.8355 111.656 98.2195 111.587 98.5715 111.448C98.9342 111.309 99.3235 111.059 99.7395 110.696L100.572 111.864C100.316 112.12 100.001 112.344 99.6275 112.536C99.2648 112.728 98.8755 112.883 98.4595 113C98.0542 113.107 97.6542 113.16 97.2595 113.16ZM105.515 113.16C104.811 113.16 104.176 113.037 103.611 112.792C103.045 112.547 102.576 112.184 102.203 111.704L103.323 110.744C103.643 111.117 103.989 111.389 104.363 111.56C104.747 111.72 105.179 111.8 105.659 111.8C105.851 111.8 106.027 111.779 106.187 111.736C106.357 111.683 106.501 111.608 106.619 111.512C106.747 111.416 106.843 111.304 106.907 111.176C106.971 111.037 107.003 110.888 107.003 110.728C107.003 110.451 106.901 110.227 106.699 110.056C106.592 109.981 106.421 109.901 106.187 109.816C105.963 109.72 105.669 109.624 105.307 109.528C104.688 109.368 104.181 109.187 103.787 108.984C103.392 108.781 103.088 108.552 102.875 108.296C102.715 108.093 102.597 107.875 102.523 107.64C102.448 107.395 102.411 107.128 102.411 106.84C102.411 106.488 102.485 106.168 102.635 105.88C102.795 105.581 103.008 105.325 103.275 105.112C103.552 104.888 103.872 104.717 104.235 104.6C104.608 104.483 105.003 104.424 105.419 104.424C105.813 104.424 106.203 104.477 106.587 104.584C106.981 104.691 107.344 104.845 107.675 105.048C108.005 105.251 108.283 105.491 108.507 105.768L107.563 106.808C107.36 106.605 107.136 106.429 106.891 106.28C106.656 106.12 106.416 105.997 106.171 105.912C105.925 105.827 105.701 105.784 105.499 105.784C105.275 105.784 105.072 105.805 104.891 105.848C104.709 105.891 104.555 105.955 104.427 106.04C104.309 106.125 104.219 106.232 104.155 106.36C104.091 106.488 104.059 106.632 104.059 106.792C104.069 106.931 104.101 107.064 104.155 107.192C104.219 107.309 104.304 107.411 104.411 107.496C104.528 107.581 104.704 107.672 104.939 107.768C105.173 107.864 105.472 107.955 105.835 108.04C106.368 108.179 106.805 108.333 107.147 108.504C107.499 108.664 107.776 108.851 107.979 109.064C108.192 109.267 108.341 109.501 108.427 109.768C108.512 110.035 108.555 110.333 108.555 110.664C108.555 111.144 108.416 111.576 108.139 111.96C107.872 112.333 107.509 112.627 107.051 112.84C106.592 113.053 106.08 113.16 105.515 113.16ZM113.171 113.16C112.467 113.16 111.832 113.037 111.267 112.792C110.701 112.547 110.232 112.184 109.859 111.704L110.979 110.744C111.299 111.117 111.645 111.389 112.019 111.56C112.403 111.72 112.835 111.8 113.315 111.8C113.507 111.8 113.683 111.779 113.843 111.736C114.013 111.683 114.157 111.608 114.275 111.512C114.403 111.416 114.499 111.304 114.563 111.176C114.627 111.037 114.659 110.888 114.659 110.728C114.659 110.451 114.557 110.227 114.355 110.056C114.248 109.981 114.077 109.901 113.843 109.816C113.619 109.72 113.325 109.624 112.963 109.528C112.344 109.368 111.837 109.187 111.443 108.984C111.048 108.781 110.744 108.552 110.531 108.296C110.371 108.093 110.253 107.875 110.179 107.64C110.104 107.395 110.067 107.128 110.067 106.84C110.067 106.488 110.141 106.168 110.291 105.88C110.451 105.581 110.664 105.325 110.931 105.112C111.208 104.888 111.528 104.717 111.891 104.6C112.264 104.483 112.659 104.424 113.075 104.424C113.469 104.424 113.859 104.477 114.243 104.584C114.637 104.691 115 104.845 115.331 105.048C115.661 105.251 115.939 105.491 116.163 105.768L115.219 106.808C115.016 106.605 114.792 106.429 114.547 106.28C114.312 106.12 114.072 105.997 113.827 105.912C113.581 105.827 113.357 105.784 113.155 105.784C112.931 105.784 112.728 105.805 112.547 105.848C112.365 105.891 112.211 105.955 112.083 106.04C111.965 106.125 111.875 106.232 111.811 106.36C111.747 106.488 111.715 106.632 111.715 106.792C111.725 106.931 111.757 107.064 111.811 107.192C111.875 107.309 111.96 107.411 112.067 107.496C112.184 107.581 112.36 107.672 112.595 107.768C112.829 107.864 113.128 107.955 113.491 108.04C114.024 108.179 114.461 108.333 114.803 108.504C115.155 108.664 115.432 108.851 115.635 109.064C115.848 109.267 115.997 109.501 116.083 109.768C116.168 110.035 116.211 110.333 116.211 110.664C116.211 111.144 116.072 111.576 115.795 111.96C115.528 112.333 115.165 112.627 114.707 112.84C114.248 113.053 113.736 113.16 113.171 113.16Z" fill="#000D3D"/>
<path d="M42 147H30C26.6863 147 24 149.686 24 153V165C24 168.314 26.6863 171 30 171H42C45.3137 171 48 168.314 48 165V153C48 149.686 45.3137 147 42 147Z" fill="#F3F5F8"/>
<path d="M134 147H66C62.6863 147 60 149.686 60 153V165C60 168.314 62.6863 171 66 171H134C137.314 171 140 168.314 140 165V153C140 149.686 137.314 147 134 147Z" fill="#F3F5F8"/>
<path d="M323 159C323 150.163 315.837 143 307 143C298.163 143 291 150.163 291 159C291 167.837 298.163 175 307 175C315.837 175 323 167.837 323 159Z" fill="white"/>
<path d="M305.414 153.172L305.113 157.027C305.086 157.438 304.895 157.793 304.539 158.012C303.91 158.449 303.418 159.133 303.199 159.926L303.172 160.062H306.344V157.656C306.344 157.301 306.617 157 307 157C307.355 157 307.656 157.301 307.656 157.656V160.062H310.801L310.773 159.926C310.555 159.133 310.09 158.449 309.434 158.012C309.105 157.793 308.887 157.438 308.859 157.027L308.559 153.172C308.559 153.145 308.559 153.117 308.559 153.062H305.414C305.414 153.117 305.414 153.145 305.414 153.172ZM306.344 161.375H302.625C302.352 161.375 302.078 161.266 301.914 161.047C301.75 160.828 301.695 160.555 301.777 160.309L301.941 159.625C302.215 158.477 302.898 157.547 303.801 156.918L304.02 154.375L304.102 153.062H303.281C303.145 153.062 303.035 153.035 302.926 152.98C302.734 152.871 302.625 152.652 302.625 152.406C302.625 152.051 302.898 151.75 303.281 151.75H304.102H309.871H310.719C311.074 151.75 311.375 152.051 311.375 152.406C311.375 152.652 311.238 152.871 311.047 152.98C310.938 153.035 310.828 153.062 310.719 153.062H309.871L309.953 154.375L310.172 156.918C311.074 157.547 311.758 158.477 312.031 159.625L312.195 160.309C312.277 160.555 312.223 160.828 312.059 161.047C311.895 161.266 311.621 161.375 311.348 161.375H307.656V165.094C307.656 165.477 307.355 165.75 307 165.75C306.617 165.75 306.344 165.477 306.344 165.094V161.375Z" fill="#B9C5D4"/>
<path d="M25 206.038C25 204.559 26.1994 203.358 27.6786 203.358C29.1577 203.358 30.3584 202.159 30.3584 200.68C30.3584 199.201 31.5578 198 33.0382 198C34.5186 198 35.7168 199.201 35.7168 200.68C35.7168 202.159 34.5174 203.358 33.0382 203.358C31.5591 203.358 30.3584 204.558 30.3584 206.038C30.3584 207.519 31.5578 208.717 33.0382 208.717C34.5174 208.717 35.7168 209.916 35.7168 211.397C35.7168 212.877 34.5174 214.075 33.0382 214.075C31.5591 214.075 30.3584 212.876 30.3584 211.397C30.3584 209.917 29.159 208.717 27.6786 208.717C26.1994 208.718 25 207.519 25 206.038ZM49.019 206.038C49.019 207.517 47.8195 208.718 46.3404 208.718C44.8613 208.718 43.6606 209.917 43.6606 211.397C43.6606 212.876 42.4611 214.076 40.9807 214.076C39.5016 214.076 38.3022 212.877 38.3022 211.397C38.3022 209.916 39.5016 208.718 40.9807 208.718C42.4599 208.718 43.6606 207.519 43.6606 206.038C43.6606 204.558 42.4611 203.36 40.9807 203.36C39.5016 203.36 38.3022 202.16 38.3022 200.68C38.3022 199.201 39.5016 198.001 40.9807 198.001C42.4599 198.001 43.6606 199.201 43.6606 200.68C43.6606 202.159 44.86 203.36 46.3404 203.36C47.8195 203.36 49.019 204.559 49.019 206.038ZM39.6389 205.998C39.6389 207.437 38.4735 208.602 37.0347 208.602C35.5959 208.602 34.4304 207.437 34.4304 205.998C34.4304 204.559 35.5971 203.394 37.0347 203.394C38.4735 203.392 39.6389 204.559 39.6389 205.998Z" fill="#151A1A"/>
<g filter="url(#filter0_d_1_2)">
<path d="M323 205C323 196.163 315.837 189 307 189C298.163 189 291 196.163 291 205C291 213.837 298.163 221 307 221C315.837 221 323 213.837 323 205Z" fill="#5F38FB"/>
<path d="M303.25 200.25C303.25 199.852 303.578 199.5 304 199.5H310C310.398 199.5 310.75 199.852 310.75 200.25C310.75 200.672 310.398 201 310 201H309.297L309.555 204.492C310.422 204.961 311.102 205.734 311.43 206.695L311.453 206.766C311.523 207 311.5 207.258 311.359 207.445C311.219 207.633 310.984 207.75 310.75 207.75H303.25C302.992 207.75 302.781 207.656 302.641 207.445C302.477 207.258 302.453 207 302.523 206.766L302.547 206.695C302.875 205.734 303.555 204.961 304.422 204.492L304.68 201H304C303.578 201 303.25 200.672 303.25 200.25ZM306.25 208.5H307.75V210.75C307.75 211.172 307.398 211.5 307 211.5C306.578 211.5 306.25 211.172 306.25 210.75V208.5Z" fill="white"/>
</g>
<path d="M42 239H30C26.6863 239 24 241.686 24 245V257C24 260.314 26.6863 263 30 263H42C45.3137 263 48 260.314 48 257V245C48 241.686 45.3137 239 42 239Z" fill="#F3F5F8"/>
<path d="M134 239H66C62.6863 239 60 241.686 60 245V257C60 260.314 62.6863 263 66 263H134C137.314 263 140 260.314 140 257V245C140 241.686 137.314 239 134 239Z" fill="#F3F5F8"/>
<path d="M323 251C323 242.163 315.837 235 307 235C298.163 235 291 242.163 291 251C291 259.837 298.163 267 307 267C315.837 267 323 259.837 323 251Z" fill="white"/>
<path d="M305.414 245.172L305.113 249.027C305.086 249.438 304.895 249.793 304.539 250.012C303.91 250.449 303.418 251.133 303.199 251.926L303.172 252.062H306.344V249.656C306.344 249.301 306.617 249 307 249C307.355 249 307.656 249.301 307.656 249.656V252.062H310.801L310.773 251.926C310.555 251.133 310.09 250.449 309.434 250.012C309.105 249.793 308.887 249.438 308.859 249.027L308.559 245.172C308.559 245.145 308.559 245.117 308.559 245.062H305.414C305.414 245.117 305.414 245.145 305.414 245.172ZM306.344 253.375H302.625C302.352 253.375 302.078 253.266 301.914 253.047C301.75 252.828 301.695 252.555 301.777 252.309L301.941 251.625C302.215 250.477 302.898 249.547 303.801 248.918L304.02 246.375L304.102 245.062H303.281C303.145 245.062 303.035 245.035 302.926 244.98C302.734 244.871 302.625 244.652 302.625 244.406C302.625 244.051 302.898 243.75 303.281 243.75H304.102H309.871H310.719C311.074 243.75 311.375 244.051 311.375 244.406C311.375 244.652 311.238 244.871 311.047 244.98C310.938 245.035 310.828 245.062 310.719 245.062H309.871L309.953 246.375L310.172 248.918C311.074 249.547 311.758 250.477 312.031 251.625L312.195 252.309C312.277 252.555 312.223 252.828 312.059 253.047C311.895 253.266 311.621 253.375 311.348 253.375H307.656V257.094C307.656 257.477 307.355 257.75 307 257.75C306.617 257.75 306.344 257.477 306.344 257.094V253.375Z" fill="#B9C5D4"/>
<path d="M60 0H36C29.3726 0 24 5.37258 24 12V36C24 42.6274 29.3726 48 36 48H60C66.6274 48 72 42.6274 72 36V12C72 5.37258 66.6274 0 60 0Z" fill="#E8ECF1"/>
<path d="M44.8769 32.4998H41C40.5846 32.4998 40.2308 32.3537 39.9384 32.0614C39.6461 31.7691 39.5 31.4152 39.5 30.9999V27.1229C40.1846 27.0396 40.7724 26.755 41.2634 26.2691C41.7545 25.7832 42 25.1935 42 24.4999C42 23.8063 41.7545 23.2165 41.2634 22.7306C40.7724 22.2448 40.1846 21.9601 39.5 21.8768V17.9999C39.5 17.5845 39.6461 17.2307 39.9384 16.9383C40.2308 16.646 40.5846 16.4999 41 16.4999H45C45.0897 15.864 45.3682 15.3397 45.8355 14.9268C46.3029 14.514 46.8577 14.3076 47.5 14.3076C48.1423 14.3076 48.6971 14.514 49.1644 14.9268C49.6317 15.3397 49.9102 15.864 50 16.4999H54C54.4153 16.4999 54.7692 16.646 55.0615 16.9383C55.3538 17.2307 55.5 17.5845 55.5 17.9999V21.9999C56.1358 22.0896 56.6602 22.3681 57.073 22.8354C57.4858 23.3028 57.6922 23.8576 57.6922 24.4999C57.6922 25.1422 57.4858 25.697 57.073 26.1643C56.6602 26.6316 56.1358 26.9101 55.5 26.9999V30.9999C55.5 31.4152 55.3538 31.7691 55.0615 32.0614C54.7692 32.3537 54.4153 32.4998 54 32.4998H50.123C50.0333 31.7819 49.7403 31.1857 49.2442 30.7114C48.748 30.237 48.1666 29.9999 47.5 29.9999C46.8333 29.9999 46.2519 30.237 45.7557 30.7114C45.2596 31.1857 44.9667 31.7819 44.8769 32.4998ZM41 30.9999H43.7116C44.0539 30.1178 44.5945 29.4807 45.3336 29.0884C46.0727 28.6961 46.7949 28.4999 47.5 28.4999C48.2051 28.4999 48.9272 28.6961 49.6663 29.0884C50.4054 29.4807 50.9461 30.1178 51.2884 30.9999H54V25.5576H55.2307C55.5371 25.5191 55.774 25.3954 55.9413 25.1864C56.1086 24.9775 56.1922 24.7486 56.1922 24.4999C56.1922 24.2511 56.1086 24.0223 55.9413 23.8133C55.774 23.6043 55.5371 23.4806 55.2307 23.4421H54V17.9999H48.5577V16.7691C48.5192 16.4627 48.3955 16.2259 48.1866 16.0585C47.9776 15.8912 47.7487 15.8076 47.5 15.8076C47.2512 15.8076 47.0224 15.8912 46.8134 16.0585C46.6044 16.2259 46.4807 16.4627 46.4423 16.7691V17.9999H41V20.7384C41.7589 21.0525 42.3653 21.5515 42.8192 22.2355C43.273 22.9194 43.4999 23.6742 43.4999 24.4999C43.4999 25.3152 43.273 26.0649 42.8192 26.7489C42.3653 27.4329 41.7589 27.937 41 28.2614V30.9999Z" fill="#000D3D"/>
<path d="M60.4 210L64.736 198.8H66.496L70.8 210H68.96L66.4 203.248C66.368 203.173 66.304 202.992 66.208 202.704C66.1227 202.416 66.0213 202.096 65.904 201.744C65.7867 201.392 65.68 201.072 65.584 200.784C65.488 200.485 65.424 200.293 65.392 200.208L65.76 200.192C65.696 200.373 65.616 200.603 65.52 200.88C65.4347 201.157 65.3387 201.451 65.232 201.76C65.136 202.069 65.04 202.363 64.944 202.64C64.848 202.907 64.768 203.131 64.704 203.312L62.16 210H60.4ZM62.32 207.216L62.96 205.552H68.048L68.784 207.216H62.32ZM76.2271 210.16C75.6191 210.16 75.0538 210.08 74.5311 209.92C74.0191 209.76 73.5498 209.52 73.1231 209.2C72.7071 208.869 72.3338 208.464 72.0031 207.984L73.1871 206.624C73.7098 207.371 74.2111 207.888 74.6911 208.176C75.1711 208.464 75.7418 208.608 76.4031 208.608C76.8085 208.608 77.1765 208.544 77.5071 208.416C77.8378 208.288 78.0991 208.112 78.2911 207.888C78.4831 207.664 78.5791 207.408 78.5791 207.12C78.5791 206.928 78.5471 206.747 78.4831 206.576C78.4191 206.405 78.3178 206.251 78.1791 206.112C78.0511 205.973 77.8805 205.845 77.6671 205.728C77.4645 205.611 77.2245 205.509 76.9471 205.424C76.6698 205.328 76.3498 205.248 75.9871 205.184C75.4111 205.067 74.9098 204.912 74.4831 204.72C74.0565 204.528 73.6991 204.288 73.4111 204C73.1231 203.712 72.9098 203.387 72.7711 203.024C72.6325 202.651 72.5631 202.235 72.5631 201.776C72.5631 201.328 72.6591 200.912 72.8511 200.528C73.0538 200.144 73.3258 199.813 73.6671 199.536C74.0191 199.248 74.4298 199.029 74.8991 198.88C75.3685 198.72 75.8751 198.64 76.4191 198.64C76.9951 198.64 77.5231 198.715 78.0031 198.864C78.4831 199.013 78.9098 199.237 79.2831 199.536C79.6565 199.824 79.9658 200.181 80.2111 200.608L78.9951 201.808C78.7818 201.456 78.5418 201.163 78.2751 200.928C78.0085 200.683 77.7151 200.501 77.3951 200.384C77.0751 200.256 76.7338 200.192 76.3711 200.192C75.9551 200.192 75.5925 200.256 75.2831 200.384C74.9738 200.512 74.7285 200.693 74.5471 200.928C74.3765 201.152 74.2911 201.419 74.2911 201.728C74.2911 201.952 74.3338 202.16 74.4191 202.352C74.5045 202.533 74.6325 202.699 74.8031 202.848C74.9845 202.987 75.2245 203.115 75.5231 203.232C75.8218 203.339 76.1791 203.435 76.5951 203.52C77.1818 203.648 77.7045 203.813 78.1631 204.016C78.6218 204.208 79.0111 204.437 79.3311 204.704C79.6511 204.971 79.8911 205.269 80.0511 205.6C80.2218 205.931 80.3071 206.288 80.3071 206.672C80.3071 207.387 80.1418 208.005 79.8111 208.528C79.4805 209.051 79.0111 209.456 78.4031 209.744C77.7951 210.021 77.0698 210.16 76.2271 210.16ZM82.3395 210V208.4H84.1475V200.4H82.3395V198.8H87.6835V200.4H85.8755V208.4H87.6835V210H82.3395ZM93.7125 210L98.0485 198.8H99.8085L104.113 210H102.273L99.7125 203.248C99.6805 203.173 99.6165 202.992 99.5205 202.704C99.4352 202.416 99.3338 202.096 99.2165 201.744C99.0992 201.392 98.9925 201.072 98.8965 200.784C98.8005 200.485 98.7365 200.293 98.7045 200.208L99.0725 200.192C99.0085 200.373 98.9285 200.603 98.8325 200.88C98.7472 201.157 98.6512 201.451 98.5445 201.76C98.4485 202.069 98.3525 202.363 98.2565 202.64C98.1605 202.907 98.0805 203.131 98.0165 203.312L95.4725 210H93.7125ZM95.6325 207.216L96.2725 205.552H101.361L102.097 207.216H95.6325ZM105.7 210V198.16H107.348V210H105.7ZM109.715 210V198.16H111.363V210H109.715ZM113.971 210V201.6H115.619V210H113.971ZM114.771 199.744C114.419 199.744 114.147 199.653 113.955 199.472C113.763 199.291 113.667 199.035 113.667 198.704C113.667 198.395 113.763 198.144 113.955 197.952C114.158 197.76 114.43 197.664 114.771 197.664C115.123 197.664 115.395 197.755 115.587 197.936C115.779 198.117 115.875 198.373 115.875 198.704C115.875 199.013 115.774 199.264 115.571 199.456C115.379 199.648 115.112 199.744 114.771 199.744ZM121.384 210.16C120.691 210.16 120.056 209.968 119.48 209.584C118.915 209.2 118.461 208.677 118.12 208.016C117.779 207.355 117.608 206.608 117.608 205.776C117.608 204.933 117.779 204.187 118.12 203.536C118.472 202.875 118.941 202.357 119.528 201.984C120.125 201.611 120.792 201.424 121.528 201.424C121.965 201.424 122.365 201.488 122.728 201.616C123.091 201.744 123.405 201.925 123.672 202.16C123.949 202.384 124.173 202.645 124.344 202.944C124.525 203.243 124.637 203.563 124.68 203.904L124.312 203.776V201.6H125.976V210H124.312V208L124.696 207.888C124.632 208.176 124.499 208.459 124.296 208.736C124.104 209.003 123.853 209.243 123.544 209.456C123.245 209.669 122.909 209.84 122.536 209.968C122.173 210.096 121.789 210.16 121.384 210.16ZM121.816 208.64C122.317 208.64 122.76 208.517 123.144 208.272C123.528 208.027 123.827 207.691 124.04 207.264C124.264 206.827 124.376 206.331 124.376 205.776C124.376 205.232 124.264 204.747 124.04 204.32C123.827 203.893 123.528 203.557 123.144 203.312C122.76 203.067 122.317 202.944 121.816 202.944C121.325 202.944 120.888 203.067 120.504 203.312C120.131 203.557 119.832 203.893 119.608 204.32C119.395 204.747 119.288 205.232 119.288 205.776C119.288 206.331 119.395 206.827 119.608 207.264C119.832 207.691 120.131 208.027 120.504 208.272C120.888 208.517 121.325 208.64 121.816 208.64ZM128.277 210V201.6H129.925V203.328L129.637 203.52C129.744 203.147 129.952 202.805 130.261 202.496C130.57 202.176 130.938 201.92 131.365 201.728C131.792 201.525 132.229 201.424 132.677 201.424C133.317 201.424 133.85 201.552 134.277 201.808C134.704 202.053 135.024 202.432 135.237 202.944C135.45 203.456 135.557 204.101 135.557 204.88V210H133.909V204.992C133.909 204.512 133.845 204.117 133.717 203.808C133.589 203.488 133.392 203.259 133.125 203.12C132.858 202.971 132.528 202.907 132.133 202.928C131.813 202.928 131.52 202.981 131.253 203.088C130.986 203.184 130.752 203.323 130.549 203.504C130.357 203.685 130.202 203.899 130.085 204.144C129.978 204.379 129.925 204.635 129.925 204.912V210H129.109C128.97 210 128.832 210 128.693 210C128.554 210 128.416 210 128.277 210ZM141.361 210.16C140.582 210.16 139.883 209.968 139.265 209.584C138.657 209.2 138.171 208.677 137.809 208.016C137.457 207.355 137.281 206.613 137.281 205.792C137.281 204.971 137.457 204.229 137.809 203.568C138.171 202.907 138.657 202.384 139.265 202C139.883 201.616 140.582 201.424 141.361 201.424C142.107 201.424 142.785 201.579 143.393 201.888C144.011 202.187 144.481 202.597 144.801 203.12L143.889 204.24C143.718 203.995 143.499 203.771 143.233 203.568C142.966 203.365 142.683 203.205 142.385 203.088C142.086 202.971 141.798 202.912 141.521 202.912C141.009 202.912 140.55 203.04 140.145 203.296C139.75 203.541 139.435 203.883 139.201 204.32C138.966 204.757 138.849 205.248 138.849 205.792C138.849 206.336 138.971 206.827 139.217 207.264C139.462 207.691 139.787 208.032 140.193 208.288C140.598 208.544 141.046 208.672 141.537 208.672C141.825 208.672 142.102 208.624 142.369 208.528C142.646 208.432 142.913 208.288 143.169 208.096C143.425 207.904 143.665 207.669 143.889 207.392L144.801 208.512C144.459 208.992 143.969 209.387 143.329 209.696C142.699 210.005 142.043 210.16 141.361 210.16ZM150.275 210.16C149.411 210.16 148.643 209.979 147.971 209.616C147.31 209.243 146.787 208.736 146.403 208.096C146.03 207.456 145.843 206.72 145.843 205.888C145.843 205.227 145.95 204.624 146.163 204.08C146.376 203.536 146.67 203.067 147.043 202.672C147.427 202.267 147.88 201.957 148.403 201.744C148.936 201.52 149.512 201.408 150.131 201.408C150.675 201.408 151.182 201.515 151.651 201.728C152.12 201.931 152.526 202.213 152.867 202.576C153.219 202.939 153.486 203.371 153.667 203.872C153.859 204.363 153.95 204.901 153.939 205.488L153.923 206.192H147.059L146.691 204.88H152.499L152.259 205.152V204.768C152.227 204.416 152.11 204.101 151.907 203.824C151.704 203.547 151.448 203.328 151.139 203.168C150.83 203.008 150.494 202.928 150.131 202.928C149.555 202.928 149.07 203.04 148.675 203.264C148.28 203.477 147.982 203.797 147.779 204.224C147.576 204.64 147.475 205.157 147.475 205.776C147.475 206.363 147.598 206.875 147.843 207.312C148.088 207.739 148.435 208.069 148.883 208.304C149.331 208.539 149.848 208.656 150.435 208.656C150.851 208.656 151.235 208.587 151.587 208.448C151.95 208.309 152.339 208.059 152.755 207.696L153.587 208.864C153.331 209.12 153.016 209.344 152.643 209.536C152.28 209.728 151.891 209.883 151.475 210C151.07 210.107 150.67 210.16 150.275 210.16ZM163.015 210L159.447 198.8H161.287L163.447 205.808C163.511 205.979 163.569 206.181 163.623 206.416C163.676 206.64 163.724 206.869 163.766 207.104C163.809 207.339 163.847 207.557 163.879 207.76C163.921 207.963 163.959 208.128 163.991 208.256L163.527 208.24C163.687 207.675 163.809 207.237 163.895 206.928C163.991 206.619 164.065 206.384 164.119 206.224C164.172 206.053 164.22 205.909 164.263 205.792L166.279 200.736H167.831L169.783 205.792C169.889 206.048 169.98 206.304 170.055 206.56C170.14 206.805 170.215 207.056 170.279 207.312C170.343 207.557 170.412 207.819 170.487 208.096L170.071 208.208C170.124 207.92 170.161 207.696 170.183 207.536C170.215 207.365 170.241 207.227 170.263 207.12C170.284 207.013 170.305 206.912 170.327 206.816C170.348 206.709 170.38 206.576 170.423 206.416C170.476 206.256 170.545 206.037 170.631 205.76L172.759 198.8H174.615L171.047 210H169.847L166.887 202.992L167.031 203.056L164.183 210H163.015ZM178.978 210.16C178.284 210.16 177.65 209.968 177.074 209.584C176.508 209.2 176.055 208.677 175.714 208.016C175.372 207.355 175.202 206.608 175.202 205.776C175.202 204.933 175.372 204.187 175.714 203.536C176.066 202.875 176.535 202.357 177.122 201.984C177.719 201.611 178.386 201.424 179.122 201.424C179.559 201.424 179.959 201.488 180.322 201.616C180.684 201.744 180.999 201.925 181.266 202.16C181.543 202.384 181.767 202.645 181.938 202.944C182.119 203.243 182.231 203.563 182.274 203.904L181.906 203.776V201.6H183.57V210H181.906V208L182.29 207.888C182.226 208.176 182.092 208.459 181.89 208.736C181.698 209.003 181.447 209.243 181.138 209.456C180.839 209.669 180.503 209.84 180.13 209.968C179.767 210.096 179.383 210.16 178.978 210.16ZM179.41 208.64C179.911 208.64 180.354 208.517 180.738 208.272C181.122 208.027 181.42 207.691 181.634 207.264C181.858 206.827 181.97 206.331 181.97 205.776C181.97 205.232 181.858 204.747 181.634 204.32C181.42 203.893 181.122 203.557 180.738 203.312C180.354 203.067 179.911 202.944 179.41 202.944C178.919 202.944 178.482 203.067 178.098 203.312C177.724 203.557 177.426 203.893 177.202 204.32C176.988 204.747 176.882 205.232 176.882 205.776C176.882 206.331 176.988 206.827 177.202 207.264C177.426 207.691 177.724 208.027 178.098 208.272C178.482 208.517 178.919 208.64 179.41 208.64ZM185.903 210V198.16H187.551V210H185.903ZM189.918 210V198.16H191.566V210H189.918ZM197.666 210.16C196.802 210.16 196.034 209.979 195.362 209.616C194.7 209.243 194.178 208.736 193.794 208.096C193.42 207.456 193.234 206.72 193.234 205.888C193.234 205.227 193.34 204.624 193.554 204.08C193.767 203.536 194.06 203.067 194.434 202.672C194.818 202.267 195.271 201.957 195.794 201.744C196.327 201.52 196.903 201.408 197.522 201.408C198.066 201.408 198.572 201.515 199.042 201.728C199.511 201.931 199.916 202.213 200.258 202.576C200.61 202.939 200.876 203.371 201.058 203.872C201.25 204.363 201.34 204.901 201.33 205.488L201.314 206.192H194.45L194.082 204.88H199.89L199.65 205.152V204.768C199.618 204.416 199.5 204.101 199.298 203.824C199.095 203.547 198.839 203.328 198.53 203.168C198.22 203.008 197.884 202.928 197.522 202.928C196.946 202.928 196.46 203.04 196.066 203.264C195.671 203.477 195.372 203.797 195.17 204.224C194.967 204.64 194.866 205.157 194.866 205.776C194.866 206.363 194.988 206.875 195.234 207.312C195.479 207.739 195.826 208.069 196.274 208.304C196.722 208.539 197.239 208.656 197.826 208.656C198.242 208.656 198.626 208.587 198.978 208.448C199.34 208.309 199.73 208.059 200.146 207.696L200.978 208.864C200.722 209.12 200.407 209.344 200.034 209.536C199.671 209.728 199.282 209.883 198.866 210C198.46 210.107 198.06 210.16 197.666 210.16ZM204.161 210V199.456H205.809V210H204.161ZM202.417 203.2V201.6H207.761V203.2H202.417Z" fill="#000D3D"/>
</g>
<defs>
<filter id="filter0_d_1_2" x="279" y="181" width="56" height="56" filterUnits="userSpaceOnUse" color-interpolation-filters="sRGB">
<feFlood flood-opacity="0" result="BackgroundImageFix"/>
<feColorMatrix in="SourceAlpha" type="matrix" values="0 0 0 0 0 0 0 0 0 0 0 0 0 0 0 0 0 0 127 0" result="hardAlpha"/>
<feOffset dy="4"/>
<feGaussianBlur stdDeviation="6"/>
<feComposite in2="hardAlpha" operator="out"/>
<feColorMatrix type="matrix" values="0 0 0 0 0 0 0 0 0 0 0 0 0 0 0 0 0 0 0.22 0"/>
<feBlend mode="normal" in2="BackgroundImageFix" result="effect1_dropShadow_1_2"/>
<feBlend mode="normal" in="SourceGraphic" in2="effect1_dropShadow_1_2" result="shape"/>
</filter>
<clipPath id="clip0_1_2">
<rect width="347" height="291" fill="white"/>
</clipPath>
</defs>
</svg>
