<svg width="16" height="15" viewBox="0 0 16 15" fill="none" xmlns="http://www.w3.org/2000/svg">
<path d="M8 1.37286C5.94922 1.37286 4.08984 2.46661 3.05078 4.21661C2.03906 5.99396 2.03906 8.15411 3.05078 9.90411C4.08984 11.6815 5.94922 12.7479 8 12.7479C10.0234 12.7479 11.8828 11.6815 12.9219 9.90411C13.9336 8.15411 13.9336 5.99396 12.9219 4.21661C11.8828 2.46661 10.0234 1.37286 8 1.37286ZM8 14.0604C5.48438 14.0604 3.1875 12.7479 1.92969 10.5604C0.671875 8.40021 0.671875 5.74786 1.92969 3.56036C3.1875 1.40021 5.48438 0.0603638 8 0.0603638C10.4883 0.0603638 12.7852 1.40021 14.043 3.56036C15.3008 5.74786 15.3008 8.40021 14.043 10.5604C12.7852 12.7479 10.4883 14.0604 8 14.0604ZM8 3.56036C8.35547 3.56036 8.65625 3.86115 8.65625 4.21661V7.27911C8.65625 7.66193 8.35547 7.93536 8 7.93536C7.61719 7.93536 7.34375 7.66193 7.34375 7.27911V4.21661C7.34375 3.86115 7.61719 3.56036 8 3.56036ZM8.875 9.68536C8.875 10.1776 8.46484 10.5604 8 10.5604C7.50781 10.5604 7.125 10.1776 7.125 9.68536C7.125 9.22052 7.50781 8.81036 8 8.81036C8.46484 8.81036 8.875 9.22052 8.875 9.68536Z" fill="#101418"/>
</svg>
